ply
format ascii 1.0
comment VCGLIB generated
element vertex 24
property float x
property float y
property float z
property float nx
property float ny
property float nz
property uchar red
property uchar green
property uchar blue
property uchar alpha
property float texture_u
property float texture_v
element face 12
property list uchar int vertex_indices
end_header
-5 0 5 0 -1 0 255 255 255 255 0.666667 0.000000
-5 0 -5 0 -1 0 255 255 255 255 0.666667 0.333333
5 0 -5 0 -1 0 255 255 255 255 0.333333 0.333333
5 0 5 -0 -1 -0 255 255 255 255 0.333333 0.000000
5 10 -5 -0 1 0 255 255 255 255 0.333333 0.333333
-5 10 -5 -0 1 0 255 255 255 255 0.333333 0.666667
-5 10 5 -0 1 0 255 255 255 255 0.000000 0.666667
5 10 5 0 1 0 255 255 255 255 0.000000 0.333333
5 0 -5 0 0 -1 255 255 255 255 1.000000 0.000000
-5 0 -5 0 0 -1 255 255 255 255 1.000000 0.333333
-5 10 -5 0 0 -1 255 255 255 255 0.666667 0.333333
5 10 -5 -0 -0 -1 255 255 255 255 0.666667 0.000000
5 0 5 1 0 -0 255 255 255 255 0.000000 0.000000
5 0 -5 1 0 -0 255 255 255 255 0.333333 0.000000
5 10 -5 1 0 -0 255 255 255 255 0.333333 0.333333
5 10 5 1 0 0 255 255 255 255 0.000000 0.333333
-5 0 5 0 0 1 255 255 255 255 0.333333 0.666667
5 0 5 0 0 1 255 255 255 255 0.333333 1.000000
5 10 5 0 0 1 255 255 255 255 0.000000 1.000000
-5 10 5 -0 0 1 255 255 255 255 0.000000 0.666667
-5 0 -5 -1 -0 -0 255 255 255 255 0.666667 0.666667
-5 0 5 -1 -0 -0 255 255 255 255 0.333333 0.666667
-5 10 5 -1 -0 -0 255 255 255 255 0.333333 0.333333
-5 10 -5 -1 -0 0 255 255 255 255 0.666667 0.333333
3 0 1 2 
3 0 2 3 
3 4 5 6 
3 4 6 7 
3 8 9 10 
3 8 10 11 
3 12 13 14 
3 12 14 15 
3 16 17 18 
3 16 18 19 
3 20 21 22 
3 20 22 23 
