ply
format ascii 1.0
comment VCGLIB generated
comment TextureFile fire-torch-texture.bmp
element vertex 96
property float x
property float y
property float z
property float nx
property float ny
property float nz
property uchar red
property uchar green
property uchar blue
property uchar alpha
property float texture_u
property float texture_v
element face 108
property list uchar int vertex_indices
end_header
-1.082532 1.819722 -2.023834 0.4999996 0.3687359 0.7836034 255 255 255 255 1 0
-1.082532 2.573745 -2.378649 0.4999996 0.3687359 0.7836034 255 255 255 255 0.666667 0
-1.082532 3.327767 -2.733466 0.4999996 0.3687359 0.7836034 255 255 255 255 0.333333 0
-1.082532 4.081789 -3.088282 0.4999997 0.3687359 0.7836034 255 255 255 255 0 0
-0.360844 1.642314 -2.400845 0.4999998 0.3687359 0.7836033 255 255 255 255 1 0.333333
-0.3608439 2.396337 -2.755661 0.4999998 0.3687359 0.7836033 255 255 255 255 0.666667 0.333333
-0.3608438 3.150359 -3.110477 0.4999997 0.3687359 0.7836034 255 255 255 255 0.333333 0.333333
-0.3608438 3.904381 -3.465293 0.4999999 0.3687358 0.7836033 255 255 255 255 0 0.333333
0.360844 1.464906 -2.777856 0.4999998 0.3687359 0.7836033 255 255 255 255 1 0.666667
0.360844 2.218928 -3.132672 0.4999998 0.3687359 0.7836033 255 255 255 255 0.666667 0.666667
0.3608441 2.972951 -3.487488 0.4999998 0.3687359 0.7836033 255 255 255 255 0.333333 0.666667
0.3608442 3.726973 -3.842304 0.4999998 0.3687359 0.7836033 255 255 255 255 0 0.666667
1.082532 1.287498 -3.154867 0.4999997 0.3687359 0.7836034 255 255 255 255 1 1
1.082532 2.04152 -3.509683 0.4999997 0.3687359 0.7836034 255 255 255 255 0.666667 1
1.082532 2.795543 -3.864499 0.4999996 0.3687359 0.7836034 255 255 255 255 0.333333 1
1.082532 3.549565 -4.219316 0.4999996 0.3687359 0.7836034 255 255 255 255 0 1
1.082532 1.287498 -3.154867 -0.4999998 -0.3687359 -0.7836033 255 255 255 255 1 0
1.082532 2.04152 -3.509683 -0.4999999 -0.3687358 -0.7836033 255 255 255 255 0.666667 0
1.082532 2.795543 -3.864499 -0.4999998 -0.3687359 -0.7836033 255 255 255 255 0.333333 0
1.082532 3.549565 -4.219316 -0.4999998 -0.3687359 -0.7836033 255 255 255 255 0 0
0.360844 1.464906 -2.777856 -0.4999998 -0.3687359 -0.7836033 255 255 255 255 1 0.333333
0.360844 2.218928 -3.132672 -0.4999998 -0.3687359 -0.7836033 255 255 255 255 0.666667 0.333333
0.3608441 2.972951 -3.487488 -0.4999998 -0.3687359 -0.7836033 255 255 255 255 0.333333 0.333333
0.3608442 3.726973 -3.842304 -0.4999999 -0.3687358 -0.7836033 255 255 255 255 0 0.333333
-0.360844 1.642314 -2.400845 -0.4999998 -0.3687359 -0.7836033 255 255 255 255 1 0.666667
-0.3608439 2.396337 -2.755661 -0.4999999 -0.3687358 -0.7836033 255 255 255 255 0.666667 0.666667
-0.3608438 3.150359 -3.110477 -0.4999999 -0.3687358 -0.7836033 255 255 255 255 0.333333 0.666667
-0.3608438 3.904381 -3.465293 -0.4999999 -0.3687358 -0.7836033 255 255 255 255 0 0.666667
-1.082532 1.819722 -2.023834 -0.4999998 -0.3687359 -0.7836033 255 255 255 255 1 1
-1.082532 2.573745 -2.378649 -0.4999999 -0.3687358 -0.7836033 255 255 255 255 0.666667 1
-1.082532 3.327767 -2.733466 -0.4999999 -0.3687358 -0.7836033 255 255 255 255 0.333333 1
-1.082532 4.081789 -3.088282 -0.4999998 -0.3687359 -0.7836033 255 255 255 255 0 1
1.082532 1.819722 -2.023833 0.5000004 -0.3687358 -0.783603 255 255 255 255 1 0
1.082532 2.573745 -2.378649 0.5000004 -0.3687358 -0.783603 255 255 255 255 0.666667 0
1.082532 3.327767 -2.733465 0.5000002 -0.3687358 -0.7836031 255 255 255 255 0.333333 0
1.082532 4.08179 -3.088282 0.5000004 -0.3687358 -0.783603 255 255 255 255 0 0
0.360844 1.642314 -2.400844 0.5000002 -0.3687358 -0.7836031 255 255 255 255 1 0.333333
0.360844 2.396337 -2.755661 0.5000002 -0.3687358 -0.7836031 255 255 255 255 0.666667 0.333333
0.3608441 3.150359 -3.110477 0.5000002 -0.3687358 -0.7836031 255 255 255 255 0.333333 0.333333
0.3608442 3.904382 -3.465293 0.5000004 -0.3687358 -0.783603 255 255 255 255 0 0.333333
-0.360844 1.464906 -2.777856 0.5000002 -0.3687358 -0.7836031 255 255 255 255 1 0.666667
-0.3608439 2.218928 -3.132672 0.5000002 -0.3687358 -0.7836031 255 255 255 255 0.666667 0.666667
-0.3608438 2.972951 -3.487488 0.5000002 -0.3687358 -0.7836031 255 255 255 255 0.333333 0.666667
-0.3608438 3.726974 -3.842304 0.5000002 -0.3687358 -0.7836031 255 255 255 255 0 0.666667
-1.082532 1.287498 -3.154867 0.5000004 -0.3687358 -0.783603 255 255 255 255 1 1
-1.082532 2.04152 -3.509683 0.5000004 -0.3687358 -0.783603 255 255 255 255 0.666667 1
-1.082532 2.795543 -3.8645 0.5000004 -0.3687358 -0.783603 255 255 255 255 0.333333 1
-1.082531 3.549565 -4.219316 0.5000004 -0.3687358 -0.783603 255 255 255 255 0 1
-1.082532 1.287498 -3.154867 -0.5 0.3687358 0.7836031 255 255 255 255 1 0
-1.082532 2.04152 -3.509683 -0.5000002 0.3687358 0.7836031 255 255 255 255 0.666667 0
-1.082532 2.795543 -3.8645 -0.5000002 0.3687358 0.7836031 255 255 255 255 0.333333 0
-1.082531 3.549565 -4.219316 -0.5 0.3687358 0.7836031 255 255 255 255 0 0
-0.360844 1.464906 -2.777856 -0.5000002 0.3687358 0.7836031 255 255 255 255 1 0.333333
-0.3608439 2.218928 -3.132672 -0.5000001 0.3687358 0.7836031 255 255 255 255 0.666667 0.333333
-0.3608438 2.972951 -3.487488 -0.5000001 0.3687358 0.7836031 255 255 255 255 0.333333 0.333333
-0.3608438 3.726974 -3.842304 -0.5000002 0.3687358 0.7836031 255 255 255 255 0 0.333333
0.360844 1.642314 -2.400844 -0.5000002 0.3687358 0.7836031 255 255 255 255 1 0.666667
0.360844 2.396337 -2.755661 -0.5000001 0.3687358 0.7836031 255 255 255 255 0.666667 0.666667
0.3608441 3.150359 -3.110477 -0.5000001 0.3687358 0.7836031 255 255 255 255 0.333333 0.666667
0.3608442 3.904382 -3.465293 -0.5000002 0.3687358 0.7836031 255 255 255 255 0 0.666667
1.082532 1.819722 -2.023833 -0.5 0.3687358 0.7836031 255 255 255 255 1 1
1.082532 2.573745 -2.378649 -0.5000002 0.3687358 0.7836031 255 255 255 255 0.666667 1
1.082532 3.327767 -2.733465 -0.5000002 0.3687358 0.7836031 255 255 255 255 0.333333 1
1.082532 4.08179 -3.088282 -0.5 0.3687358 0.7836031 255 255 255 255 0 1
2.731963e-07 1.021386 -3.720384 -1 -3.489442e-08 -1.768164e-07 255 255 255 255 1 0
3.096223e-07 1.775408 -4.0752 -1 -3.489438e-08 -1.768163e-07 255 255 255 255 0.666667 0
3.460485e-07 2.529431 -4.430017 -1 -3.489438e-08 -1.768163e-07 255 255 255 255 0.333333 0
3.824746e-07 3.283453 -4.784832 -1 -3.489442e-08 -1.768164e-07 255 255 255 255 0 0
1.274916e-07 1.376202 -2.966361 -1 -3.489438e-08 -1.768163e-07 255 255 255 255 1 0.333333
1.639177e-07 2.130224 -3.321177 -1 -3.489438e-08 -1.768163e-07 255 255 255 255 0.666667 0.333333
2.003439e-07 2.884247 -3.675994 -1 -3.489438e-08 -1.768163e-07 255 255 255 255 0.333333 0.333333
2.3677e-07 3.638269 -4.03081 -1 -3.489438e-08 -1.768163e-07 255 255 255 255 0 0.333333
-1.821309e-08 1.731018 -2.212339 -1 -3.489438e-08 -1.768163e-07 255 255 255 255 1 0.666667
1.821306e-08 2.485041 -2.567155 -1 -3.489438e-08 -1.768163e-07 255 255 255 255 0.666667 0.666667
5.463923e-08 3.239063 -2.921971 -1 -3.489438e-08 -1.768163e-07 255 255 255 255 0.333333 0.666667
9.106537e-08 3.993086 -3.276787 -1 -3.489438e-08 -1.768163e-07 255 255 255 255 0 0.666667
-1.639177e-07 2.085834 -1.458316 -1 -3.489442e-08 -1.768164e-07 255 255 255 255 1 1
-1.274916e-07 2.839857 -1.813132 -1 -3.489438e-08 -1.768163e-07 255 255 255 255 0.666667 1
-9.106539e-08 3.593879 -2.167949 -1 -3.489438e-08 -1.768163e-07 255 255 255 255 0.333333 1
-5.463932e-08 4.347902 -2.522765 -1 -3.489442e-08 -1.768164e-07 255 255 255 255 0 1
-5.463923e-08 2.085834 -1.458316 1 -2.328413e-09 9.771392e-08 255 255 255 255 1 0
-1.821306e-08 2.839857 -1.813132 1 -2.328434e-09 9.771387e-08 255 255 255 255 0.666667 0
1.821309e-08 3.593879 -2.167949 1 -2.328434e-09 9.771387e-08 255 255 255 255 0.333333 0
5.463926e-08 4.347902 -2.522765 1 -2.328413e-09 9.771392e-08 255 255 255 255 0 0
1.821306e-08 1.731018 -2.212339 1 -2.328424e-09 9.77139e-08 255 255 255 255 1 0.333333
5.463922e-08 2.485041 -2.567155 1 -2.328427e-09 9.771389e-08 255 255 255 255 0.666667 0.333333
9.106539e-08 3.239063 -2.921971 1 -2.328427e-09 9.771389e-08 255 255 255 255 0.333333 0.333333
1.274915e-07 3.993086 -3.276787 1 -2.328424e-09 9.77139e-08 255 255 255 255 0 0.333333
9.106542e-08 1.376202 -2.966361 1 -2.328424e-09 9.77139e-08 255 255 255 255 1 0.666667
1.274916e-07 2.130224 -3.321177 1 -2.328427e-09 9.771389e-08 255 255 255 255 0.666667 0.666667
1.639177e-07 2.884247 -3.675994 1 -2.328427e-09 9.771389e-08 255 255 255 255 0.333333 0.666667
2.003439e-07 3.638269 -4.03081 1 -2.328424e-09 9.77139e-08 255 255 255 255 0 0.666667
1.639177e-07 1.021386 -3.720384 1 -2.328413e-09 9.771392e-08 255 255 255 255 1 1
2.003439e-07 1.775408 -4.0752 1 -2.328434e-09 9.771387e-08 255 255 255 255 0.666667 1
2.3677e-07 2.529431 -4.430017 1 -2.328434e-09 9.771387e-08 255 255 255 255 0.333333 1
2.731962e-07 3.283453 -4.784832 1 -2.328413e-09 9.771392e-08 255 255 255 255 0 1
3 5 1 0 
3 0 4 5 
3 6 2 1 
3 1 5 6 
3 7 3 2 
3 2 6 7 
3 9 5 4 
3 4 8 9 
3 10 6 5 
3 5 9 10 
3 11 7 6 
3 6 10 11 
3 13 9 8 
3 8 12 13 
3 14 10 9 
3 9 13 14 
3 15 11 10 
3 10 14 15 
3 21 17 16 
3 16 20 21 
3 22 18 17 
3 17 21 22 
3 23 19 18 
3 18 22 23 
3 25 21 20 
3 20 24 25 
3 26 22 21 
3 21 25 26 
3 27 23 22 
3 22 26 27 
3 29 25 24 
3 24 28 29 
3 30 26 25 
3 25 29 30 
3 31 27 26 
3 26 30 31 
3 37 33 32 
3 32 36 37 
3 38 34 33 
3 33 37 38 
3 39 35 34 
3 34 38 39 
3 41 37 36 
3 36 40 41 
3 42 38 37 
3 37 41 42 
3 43 39 38 
3 38 42 43 
3 45 41 40 
3 40 44 45 
3 46 42 41 
3 41 45 46 
3 47 43 42 
3 42 46 47 
3 53 49 48 
3 48 52 53 
3 54 50 49 
3 49 53 54 
3 55 51 50 
3 50 54 55 
3 57 53 52 
3 52 56 57 
3 58 54 53 
3 53 57 58 
3 59 55 54 
3 54 58 59 
3 61 57 56 
3 56 60 61 
3 62 58 57 
3 57 61 62 
3 63 59 58 
3 58 62 63 
3 69 65 64 
3 64 68 69 
3 70 66 65 
3 65 69 70 
3 71 67 66 
3 66 70 71 
3 73 69 68 
3 68 72 73 
3 74 70 69 
3 69 73 74 
3 75 71 70 
3 70 74 75 
3 77 73 72 
3 72 76 77 
3 78 74 73 
3 73 77 78 
3 79 75 74 
3 74 78 79 
3 85 81 80 
3 80 84 85 
3 86 82 81 
3 81 85 86 
3 87 83 82 
3 82 86 87 
3 89 85 84 
3 84 88 89 
3 90 86 85 
3 85 89 90 
3 91 87 86 
3 86 90 91 
3 93 89 88 
3 88 92 93 
3 94 90 89 
3 89 93 94 
3 95 91 90 
3 90 94 95 
