ply
format ascii 1.0
comment VCGLIB generated
comment TextureFile fire-torch-texture.bmp
element vertex 96
property float x
property float y
property float z
property float nx
property float ny
property float nz
property uchar red
property uchar green
property uchar blue
property uchar alpha
property float texture_u
property float texture_v
element face 108
property list uchar int vertex_indices
end_header
-2.165064 0.9548001 -0.9260941 0.4999996 0.3687359 0.7836034 255 255 255 255 1 0
-2.165064 2.462846 -1.635724 0.4999996 0.3687359 0.7836034 255 255 255 255 0.666667 0
-2.165064 3.97089 -2.345358 0.4999996 0.3687359 0.7836034 255 255 255 255 0.333333 0
-2.165064 5.478934 -3.05499 0.4999996 0.3687359 0.7836033 255 255 255 255 0 0
-0.721688 0.5999839 -1.680116 0.4999998 0.3687359 0.7836033 255 255 255 255 1 0.333333
-0.7216878 2.10803 -2.389748 0.4999998 0.3687359 0.7836033 255 255 255 255 0.666667 0.333333
-0.7216876 3.616074 -3.09938 0.4999996 0.3687359 0.7836033 255 255 255 255 0.333333 0.333333
-0.7216876 5.124118 -3.809012 0.4999999 0.3687358 0.7836033 255 255 255 255 0 0.333333
0.721688 0.245168 -2.434138 0.4999998 0.3687359 0.7836033 255 255 255 255 1 0.666667
0.721688 1.753212 -3.14377 0.4999998 0.3687359 0.7836033 255 255 255 255 0.666667 0.666667
0.7216882 3.261258 -3.853402 0.4999998 0.3687359 0.7836033 255 255 255 255 0.333333 0.666667
0.7216884 4.769302 -4.563034 0.4999998 0.3687359 0.7836033 255 255 255 255 0 0.666667
2.165064 -0.109648 -3.18816 0.4999996 0.3687359 0.7836033 255 255 255 255 1 1
2.165064 1.398396 -3.897792 0.4999996 0.3687359 0.7836033 255 255 255 255 0.666667 1
2.165064 2.906442 -4.607424 0.4999996 0.3687359 0.7836034 255 255 255 255 0.333333 1
2.165064 4.414486 -5.317058 0.4999996 0.3687359 0.7836034 255 255 255 255 0 1
2.165064 -0.109648 -3.18816 -0.4999998 -0.3687359 -0.7836033 255 255 255 255 1 0
2.165064 1.398396 -3.897792 -0.4999999 -0.3687358 -0.7836033 255 255 255 255 0.666667 0
2.165064 2.906442 -4.607424 -0.4999998 -0.3687359 -0.7836033 255 255 255 255 0.333333 0
2.165064 4.414486 -5.317058 -0.4999998 -0.3687359 -0.7836033 255 255 255 255 0 0
0.721688 0.245168 -2.434138 -0.4999998 -0.3687359 -0.7836033 255 255 255 255 1 0.333333
0.721688 1.753212 -3.14377 -0.4999998 -0.3687359 -0.7836033 255 255 255 255 0.666667 0.333333
0.7216882 3.261258 -3.853402 -0.4999998 -0.3687359 -0.7836033 255 255 255 255 0.333333 0.333333
0.7216884 4.769302 -4.563034 -0.4999999 -0.3687358 -0.7836033 255 255 255 255 0 0.333333
-0.721688 0.5999839 -1.680116 -0.4999998 -0.3687359 -0.7836033 255 255 255 255 1 0.666667
-0.7216878 2.10803 -2.389748 -0.4999999 -0.3687358 -0.7836033 255 255 255 255 0.666667 0.666667
-0.7216876 3.616074 -3.09938 -0.4999999 -0.3687358 -0.7836033 255 255 255 255 0.333333 0.666667
-0.7216876 5.124118 -3.809012 -0.4999999 -0.3687358 -0.7836033 255 255 255 255 0 0.666667
-2.165064 0.9548001 -0.9260941 -0.4999998 -0.3687359 -0.7836033 255 255 255 255 1 1
-2.165064 2.462846 -1.635724 -0.4999999 -0.3687358 -0.7836033 255 255 255 255 0.666667 1
-2.165064 3.97089 -2.345358 -0.4999999 -0.3687358 -0.7836033 255 255 255 255 0.333333 1
-2.165064 5.478934 -3.05499 -0.4999998 -0.3687359 -0.7836033 255 255 255 255 0 1
2.165064 0.9548001 -0.9260921 0.5000004 -0.3687358 -0.783603 255 255 255 255 1 0
2.165064 2.462846 -1.635724 0.5000004 -0.3687358 -0.783603 255 255 255 255 0.666667 0
2.165064 3.97089 -2.345356 0.5000002 -0.3687358 -0.7836031 255 255 255 255 0.333333 0
2.165064 5.478936 -3.05499 0.5000004 -0.3687358 -0.783603 255 255 255 255 0 0
0.721688 0.5999839 -1.680114 0.5000002 -0.3687358 -0.7836031 255 255 255 255 1 0.333333
0.721688 2.10803 -2.389748 0.5000002 -0.3687358 -0.7836031 255 255 255 255 0.666667 0.333333
0.7216882 3.616074 -3.09938 0.5000002 -0.3687358 -0.7836031 255 255 255 255 0.333333 0.333333
0.7216884 5.12412 -3.809012 0.5000004 -0.3687358 -0.783603 255 255 255 255 0 0.333333
-0.721688 0.245168 -2.434138 0.5000002 -0.3687358 -0.7836031 255 255 255 255 1 0.666667
-0.7216878 1.753212 -3.14377 0.5000002 -0.3687358 -0.7836031 255 255 255 255 0.666667 0.666667
-0.7216876 3.261258 -3.853402 0.5000002 -0.3687358 -0.7836031 255 255 255 255 0.333333 0.666667
-0.7216876 4.769304 -4.563034 0.5000002 -0.3687358 -0.7836031 255 255 255 255 0 0.666667
-2.165064 -0.109648 -3.18816 0.5000004 -0.3687358 -0.783603 255 255 255 255 1 1
-2.165064 1.398396 -3.897792 0.5000004 -0.3687358 -0.783603 255 255 255 255 0.666667 1
-2.165064 2.906442 -4.607426 0.5000004 -0.3687358 -0.783603 255 255 255 255 0.333333 1
-2.165062 4.414486 -5.317058 0.5000004 -0.3687358 -0.783603 255 255 255 255 0 1
-2.165064 -0.109648 -3.18816 -0.5000001 0.3687358 0.7836032 255 255 255 255 1 0
-2.165064 1.398396 -3.897792 -0.5000002 0.3687358 0.7836031 255 255 255 255 0.666667 0
-2.165064 2.906442 -4.607426 -0.5000002 0.3687358 0.7836031 255 255 255 255 0.333333 0
-2.165062 4.414486 -5.317058 -0.5000001 0.3687358 0.7836032 255 255 255 255 0 0
-0.721688 0.245168 -2.434138 -0.5000002 0.3687358 0.7836031 255 255 255 255 1 0.333333
-0.7216878 1.753212 -3.14377 -0.5000002 0.3687358 0.7836031 255 255 255 255 0.666667 0.333333
-0.7216876 3.261258 -3.853402 -0.5000002 0.3687358 0.7836031 255 255 255 255 0.333333 0.333333
-0.7216876 4.769304 -4.563034 -0.5000002 0.3687358 0.7836031 255 255 255 255 0 0.333333
0.721688 0.5999839 -1.680114 -0.5000002 0.3687358 0.7836031 255 255 255 255 1 0.666667
0.721688 2.10803 -2.389748 -0.5000002 0.3687358 0.7836031 255 255 255 255 0.666667 0.666667
0.7216882 3.616074 -3.09938 -0.5000002 0.3687358 0.7836031 255 255 255 255 0.333333 0.666667
0.7216884 5.12412 -3.809012 -0.5000002 0.3687358 0.7836031 255 255 255 255 0 0.666667
2.165064 0.9548001 -0.9260921 -0.5000001 0.3687358 0.7836032 255 255 255 255 1 1
2.165064 2.462846 -1.635724 -0.5000002 0.3687358 0.7836031 255 255 255 255 0.666667 1
2.165064 3.97089 -2.345356 -0.5000002 0.3687358 0.7836031 255 255 255 255 0.333333 1
2.165064 5.478936 -3.05499 -0.5000001 0.3687358 0.7836032 255 255 255 255 0 1
5.463926e-07 -0.6418719 -4.319194 -1 -3.489442e-08 -1.768164e-07 255 255 255 255 1 0
6.192446e-07 0.8661721 -5.028826 -1 -3.489438e-08 -1.768163e-07 255 255 255 255 0.666667 0
6.92097e-07 2.374218 -5.73846 -1 -3.489438e-08 -1.768163e-07 255 255 255 255 0.333333 0
7.649492e-07 3.882262 -6.44809 -1 -3.489442e-08 -1.768164e-07 255 255 255 255 0 0
2.549832e-07 0.06775999 -2.811148 -1 -3.489438e-08 -1.768163e-07 255 255 255 255 1 0.333333
3.278354e-07 1.575804 -3.52078 -1 -3.489438e-08 -1.768163e-07 255 255 255 255 0.666667 0.333333
4.006878e-07 3.08385 -4.230414 -1 -3.489438e-08 -1.768163e-07 255 255 255 255 0.333333 0.333333
4.7354e-07 4.591894 -4.940046 -1 -3.489438e-08 -1.768163e-07 255 255 255 255 0 0.333333
-3.642618e-08 0.7773919 -1.303104 -1 -3.489438e-08 -1.768163e-07 255 255 255 255 1 0.666667
3.642612e-08 2.285438 -2.012736 -1 -3.489438e-08 -1.768163e-07 255 255 255 255 0.666667 0.666667
1.092785e-07 3.793482 -2.722368 -1 -3.489438e-08 -1.768163e-07 255 255 255 255 0.333333 0.666667
1.821307e-07 5.301528 -3.432 -1 -3.489438e-08 -1.768163e-07 255 255 255 255 0 0.666667
-3.278354e-07 1.487024 0.204942 -1 -3.489442e-08 -1.768164e-07 255 255 255 255 1 1
-2.549832e-07 2.99507 -0.5046902 -1 -3.489438e-08 -1.768163e-07 255 255 255 255 0.666667 1
-1.821308e-07 4.503114 -1.214324 -1 -3.489438e-08 -1.768163e-07 255 255 255 255 0.333333 1
-1.092786e-07 6.01116 -1.923956 -1 -3.489442e-08 -1.768164e-07 255 255 255 255 0 1
-1.092785e-07 1.487024 0.204942 1 -2.328413e-09 9.771392e-08 255 255 255 255 1 0
-3.642612e-08 2.99507 -0.5046902 1 -2.328434e-09 9.771387e-08 255 255 255 255 0.666667 0
3.642618e-08 4.503114 -1.214324 1 -2.328434e-09 9.771387e-08 255 255 255 255 0.333333 0
1.092785e-07 6.01116 -1.923956 1 -2.328413e-09 9.771392e-08 255 255 255 255 0 0
3.642612e-08 0.7773919 -1.303104 1 -2.328424e-09 9.77139e-08 255 255 255 255 1 0.333333
1.092784e-07 2.285438 -2.012736 1 -2.328427e-09 9.771389e-08 255 255 255 255 0.666667 0.333333
1.821308e-07 3.793482 -2.722368 1 -2.328427e-09 9.771389e-08 255 255 255 255 0.333333 0.333333
2.54983e-07 5.301528 -3.432 1 -2.328424e-09 9.77139e-08 255 255 255 255 0 0.333333
1.821308e-07 0.06775999 -2.811148 1 -2.328424e-09 9.77139e-08 255 255 255 255 1 0.666667
2.549832e-07 1.575804 -3.52078 1 -2.328427e-09 9.771389e-08 255 255 255 255 0.666667 0.666667
3.278354e-07 3.08385 -4.230414 1 -2.328427e-09 9.771389e-08 255 255 255 255 0.333333 0.666667
4.006878e-07 4.591894 -4.940046 1 -2.328424e-09 9.77139e-08 255 255 255 255 0 0.666667
3.278354e-07 -0.6418719 -4.319194 1 -2.328413e-09 9.771392e-08 255 255 255 255 1 1
4.006878e-07 0.8661721 -5.028826 1 -2.328434e-09 9.771387e-08 255 255 255 255 0.666667 1
4.7354e-07 2.374218 -5.73846 1 -2.328434e-09 9.771387e-08 255 255 255 255 0.333333 1
5.463924e-07 3.882262 -6.44809 1 -2.328413e-09 9.771392e-08 255 255 255 255 0 1
3 5 1 0 
3 0 4 5 
3 6 2 1 
3 1 5 6 
3 7 3 2 
3 2 6 7 
3 9 5 4 
3 4 8 9 
3 10 6 5 
3 5 9 10 
3 11 7 6 
3 6 10 11 
3 13 9 8 
3 8 12 13 
3 14 10 9 
3 9 13 14 
3 15 11 10 
3 10 14 15 
3 21 17 16 
3 16 20 21 
3 22 18 17 
3 17 21 22 
3 23 19 18 
3 18 22 23 
3 25 21 20 
3 20 24 25 
3 26 22 21 
3 21 25 26 
3 27 23 22 
3 22 26 27 
3 29 25 24 
3 24 28 29 
3 30 26 25 
3 25 29 30 
3 31 27 26 
3 26 30 31 
3 37 33 32 
3 32 36 37 
3 38 34 33 
3 33 37 38 
3 39 35 34 
3 34 38 39 
3 41 37 36 
3 36 40 41 
3 42 38 37 
3 37 41 42 
3 43 39 38 
3 38 42 43 
3 45 41 40 
3 40 44 45 
3 46 42 41 
3 41 45 46 
3 47 43 42 
3 42 46 47 
3 53 49 48 
3 48 52 53 
3 54 50 49 
3 49 53 54 
3 55 51 50 
3 50 54 55 
3 57 53 52 
3 52 56 57 
3 58 54 53 
3 53 57 58 
3 59 55 54 
3 54 58 59 
3 61 57 56 
3 56 60 61 
3 62 58 57 
3 57 61 62 
3 63 59 58 
3 58 62 63 
3 69 65 64 
3 64 68 69 
3 70 66 65 
3 65 69 70 
3 71 67 66 
3 66 70 71 
3 73 69 68 
3 68 72 73 
3 74 70 69 
3 69 73 74 
3 75 71 70 
3 70 74 75 
3 77 73 72 
3 72 76 77 
3 78 74 73 
3 73 77 78 
3 79 75 74 
3 74 78 79 
3 85 81 80 
3 80 84 85 
3 86 82 81 
3 81 85 86 
3 87 83 82 
3 82 86 87 
3 89 85 84 
3 84 88 89 
3 90 86 85 
3 85 89 90 
3 91 87 86 
3 86 90 91 
3 93 89 88 
3 88 92 93 
3 94 90 89 
3 89 93 94 
3 95 91 90 
3 90 94 95 
