ply
format ascii 1.0
comment VCGLIB generated
comment TextureFile Dungeons_2_Texture_01_A.png
element vertex 483
property float x
property float y
property float z
property float nx
property float ny
property float nz
property uchar red
property uchar green
property uchar blue
property uchar alpha
property float texture_u
property float texture_v
element face 248
property list uchar int vertex_indices
end_header
-0.573558 2.33592 -9.47223 0 -0.4999988 -0.8660261 255 255 255 255 0.079792 0.281112
0.573558 7.4529 -12.42651 0 -0.4999988 -0.8660261 255 255 255 255 0.079824 0.280692
0.573558 2.33592 -9.47223 0 -0.4999988 -0.8660261 255 255 255 255 0.079829 0.281151
-0.573558 12.03576 -16.14897 0 0.7802148 -0.6255118 255 255 255 255 0.079698 0.28016
0.573558 12.38874 -15.70869 0 0.7802148 -0.6255118 255 255 255 255 0.079802 0.280159
0.573558 12.03576 -16.14897 0 0.7802147 -0.6255117 255 255 255 255 0.079736 0.280169
-0.573558 7.73427 -11.93919 0 0.4999973 0.8660269 255 255 255 255 0.079846 0.280662
0.573558 2.617272 -8.98491 0 0.4999973 0.8660269 255 255 255 255 0.07989 0.281142
0.573558 7.73427 -11.93919 0 0.4999973 0.8660269 255 255 255 255 0.079887 0.280687
-0.573558 2.617272 -8.98491 0 -0.8660266 0.4999979 255 255 255 255 0.07985 0.281104
0.573558 2.33592 -9.47223 0 -0.8660266 0.4999979 255 255 255 255 0.079829 0.281151
0.573558 2.617272 -8.98491 0 -0.8660266 0.4999979 255 255 255 255 0.07989 0.281142
-0.573558 2.617272 -8.98491 -1 0 0 255 255 255 255 0.07985 0.281104
-0.573558 7.4529 -12.42651 -1 0 0 255 255 255 255 0.079785 0.280667
-0.573558 2.33592 -9.47223 -1 0 0 255 255 255 255 0.079792 0.281112
0.573558 2.33592 -9.47223 1 0 0 255 255 255 255 0.079829 0.281151
0.573558 7.73427 -11.93919 1 0 0 255 255 255 255 0.079887 0.280687
0.573558 2.617272 -8.98491 1 0 0 255 255 255 255 0.07989 0.281142
-0.573558 7.4529 -12.42651 0 -0.630479 -0.7762064 255 255 255 255 0.079785 0.280667
0.573558 12.03576 -16.14897 0 -0.630479 -0.7762064 255 255 255 255 0.079736 0.280169
0.573558 7.4529 -12.42651 0 -0.630479 -0.7762063 255 255 255 255 0.079824 0.280692
-0.573558 12.38874 -15.70869 -1 0 0 255 255 255 255 0.079762 0.280151
-0.573558 12.03576 -16.14897 -1 0 0 255 255 255 255 0.079698 0.28016
0.573558 7.73427 -11.93919 0 0.6293591 0.7771146 255 255 255 255 0.079887 0.280687
-0.573558 12.38874 -15.70869 0 0.6293591 0.7771146 255 255 255 255 0.079762 0.280151
-0.573558 7.73427 -11.93919 0 0.6293591 0.7771146 255 255 255 255 0.079846 0.280662
0.573558 7.4529 -12.42651 1 0 0 255 255 255 255 0.079824 0.280692
0.573558 12.38874 -15.70869 1 0 0 255 255 255 255 0.079802 0.280159
2.742684 12.26367 -12.00579 -0.86313 0.3199046 0.3907272 255 255 255 255 0.080182 0.278844
1.413375 11.80902 -14.57004 -0.8631329 0.3198921 0.3907309 255 255 255 255 0.080304 0.278689
1.371342 11.07603 -14.0628 -0.8631339 0.3198879 0.3907322 255 255 255 255 0.080304 0.278803
1.371342 13.45128 -9.94878 -0.8631334 -0.1784346 -0.4724001 255 255 255 255 0.080277 0.278891
2.826747 13.03302 -12.45 -0.8631328 -0.1784421 -0.4723984 255 255 255 255 0.080181 0.278728
2.742684 12.26367 -12.00579 -0.8631325 -0.1784446 -0.4723979 255 255 255 255 0.080182 0.278844
-1.413375 14.25705 -10.32993 0 -0.4276 -0.9039681 255 255 255 255 0.080502 0.278775
1.371342 13.45128 -9.94878 0 -0.4276 -0.9039681 255 255 255 255 0.080277 0.278891
-1.371342 13.45128 -9.94878 0 -0.4276 -0.9039681 255 255 255 255 0.080501 0.278895
-2.826747 13.03302 -12.45 0.8631328 -0.1784421 -0.4723985 255 255 255 255 0.08062 0.278734
-1.371342 13.45128 -9.94878 0.8631334 -0.1784346 -0.4724001 255 255 255 255 0.080501 0.278895
-2.742684 12.26367 -12.00579 0.8631325 -0.1784446 -0.4723979 255 255 255 255 0.080619 0.27885
-1.371342 11.07603 -14.0628 0.8631324 0.319906 0.3907207 255 255 255 255 0.080518 0.278806
-2.826747 13.03302 -12.45 0.8631324 0.3199059 0.3907207 255 255 255 255 0.08062 0.278734
-2.742684 12.26367 -12.00579 0.8631324 0.3199059 0.3907207 255 255 255 255 0.080619 0.27885
1.413375 11.80902 -14.57004 0 0.5690464 0.8223054 255 255 255 255 0.080304 0.278689
-1.371342 11.07603 -14.0628 0 0.5690464 0.8223054 255 255 255 255 0.080518 0.278806
1.371342 11.07603 -14.0628 0 0.5690464 0.8223054 255 255 255 255 0.080304 0.278803
1.658418 10.82742 -14.49342 0.8618029 -0.334192 -0.3815906 255 255 255 255 0.080304 0.278803
3.4185 13.03302 -12.45 0.8618036 -0.3342022 -0.3815804 255 255 255 255 0.080181 0.278728
3.31683 12.26367 -12.00579 0.8618038 -0.3342047 -0.3815777 255 255 255 255 0.080182 0.278844
3.31683 12.26367 -12.00579 0.8618045 0.1633769 0.4802095 255 255 255 255 0.080182 0.278844
1.709244 14.51328 -9.88611 0.8618044 0.1633766 0.4802098 255 255 255 255 0.080276 0.278772
1.658415 13.69989 -9.51816 0.8618042 0.1633765 0.4802098 255 255 255 255 0.080277 0.278891
1.658415 13.69989 -9.51816 0 0.4121569 0.911113 255 255 255 255 0.080277 0.278891
-1.709247 14.51328 -9.88611 0 0.4121569 0.9111129 255 255 255 255 0.080502 0.278775
-1.658415 13.69989 -9.51816 0 0.4121569 0.9111129 255 255 255 255 0.080501 0.278895
-1.658415 13.69989 -9.51816 -0.8618045 0.1633738 0.4802104 255 255 255 255 0.080501 0.278895
-3.4185 13.03302 -12.45 -0.8618044 0.1633764 0.4802097 255 255 255 255 0.08062 0.278734
-3.31683 12.26367 -12.00579 -0.8618044 0.1633771 0.4802095 255 255 255 255 0.080619 0.27885
-3.31683 12.26367 -12.00579 -0.8618013 -0.334204 -0.3815838 255 255 255 255 0.080619 0.27885
-1.709244 11.55276 -15.01386 -0.8618044 -0.3341905 -0.3815887 255 255 255 255 0.080518 0.278692
-1.658415 10.82742 -14.49342 -0.8618051 -0.3341871 -0.3815899 255 255 255 255 0.080518 0.278806
-1.658415 10.82742 -14.49342 0 -0.5829726 -0.8124919 255 255 255 255 0.080518 0.278806
1.709247 11.55276 -15.01386 0 -0.5829725 -0.8124919 255 255 255 255 0.080304 0.278689
1.658418 10.82742 -14.49342 0 -0.5829725 -0.8124918 255 255 255 255 0.080304 0.278803
2.742684 12.26367 -12.00579 0 -0.8660228 0.5000045 255 255 255 255 0.080182 0.278844
1.658418 10.82742 -14.49342 0 -0.8660228 0.5000045 255 255 255 255 0.080304 0.278803
3.31683 12.26367 -12.00579 0 -0.8660228 0.5000045 255 255 255 255 0.080182 0.278844
1.709247 11.55276 -15.01386 0 0.8660233 -0.5000037 255 255 255 255 0.080304 0.278689
2.826747 13.03302 -12.45 0 0.8660232 -0.5000037 255 255 255 255 0.080181 0.278728
3.4185 13.03302 -12.45 0 0.8660232 -0.5000037 255 255 255 255 0.080181 0.278728
1.658415 13.69989 -9.51816 0 -0.8660277 0.499996 255 255 255 255 0.080277 0.278891
2.742684 12.26367 -12.00579 0 -0.8660277 0.499996 255 255 255 255 0.080182 0.278844
3.31683 12.26367 -12.00579 0 -0.8660277 0.499996 255 255 255 255 0.080182 0.278844
2.826747 13.03302 -12.45 1.207948e-06 0.866026 -0.4999991 255 255 255 255 0.080181 0.278728
1.709244 14.51328 -9.88611 1.313717e-05 0.8660282 -0.4999952 255 255 255 255 0.080276 0.278772
3.4185 13.03302 -12.45 0 0.8660257 -0.4999995 255 255 255 255 0.080181 0.278728
-1.658415 13.69989 -9.51816 0 -0.8660331 0.4999867 255 255 255 255 0.080501 0.278895
1.371342 13.45128 -9.94878 0 -0.8660331 0.4999867 255 255 255 255 0.080277 0.278891
1.658415 13.69989 -9.51816 0 -0.8660331 0.4999867 255 255 255 255 0.080277 0.278891
1.413375 14.25705 -10.32993 0 0.8660331 -0.4999867 255 255 255 255 0.080276 0.278772
-1.709247 14.51328 -9.88611 0 0.8660331 -0.4999867 255 255 255 255 0.080502 0.278775
1.709244 14.51328 -9.88611 0 0.8660331 -0.4999867 255 255 255 255 0.080276 0.278772
-2.742684 12.26367 -12.00579 0 -0.8660253 0.5000004 255 255 255 255 0.080619 0.27885
-1.658415 13.69989 -9.51816 0 -0.8660277 0.4999961 255 255 255 255 0.080501 0.278895
-3.31683 12.26367 -12.00579 0 -0.8660253 0.5000004 255 255 255 255 0.080619 0.27885
-1.709247 14.51328 -9.88611 0 0.8660257 -0.4999995 255 255 255 255 0.080502 0.278775
-2.826747 13.03302 -12.45 0 0.8660245 -0.5000015 255 255 255 255 0.08062 0.278734
-3.4185 13.03302 -12.45 0 0.8660245 -0.5000016 255 255 255 255 0.08062 0.278734
-1.658415 10.82742 -14.49342 0 -0.8660228 0.5000045 255 255 255 255 0.080518 0.278806
-1.709244 11.55276 -15.01386 0 0.8660232 -0.5000036 255 255 255 255 0.080518 0.278692
1.658418 10.82742 -14.49342 0 -0.8660327 0.4999874 255 255 255 255 0.080304 0.278803
-1.371342 11.07603 -14.0628 0 -0.8660327 0.4999874 255 255 255 255 0.080518 0.278806
-1.658415 10.82742 -14.49342 0 -0.8660327 0.4999874 255 255 255 255 0.080518 0.278806
-1.413372 11.80902 -14.57004 0 0.866008 -0.50003 255 255 255 255 0.080518 0.278692
1.709247 11.55276 -15.01386 0 0.8660081 -0.50003 255 255 255 255 0.080304 0.278689
-1.709244 11.55276 -15.01386 0 0.8660081 -0.50003 255 255 255 255 0.080518 0.278692
2.769732 3.43401 -7.570291 1 0 0 255 255 255 255 0.079792 0.281112
2.769732 9.12456 -9.531151 1 0 0 255 255 255 255 0.079824 0.280692
2.769732 4.00758 -6.57684 1 0 0 255 255 255 255 0.079829 0.281151
3.70206 14.17356 -12.44619 0.1516144 0.8560202 -0.494209 255 255 255 255 0.079736 0.280169
3.14427 13.67412 -13.48239 0.1516045 0.856024 -0.4942055 255 255 255 255 0.079762 0.280151
3.14427 14.24766 -12.48897 0.1516214 0.8560175 -0.4942115 255 255 255 255 0.079802 0.280159
2.207025 9.12456 -9.531151 -1 0 0 255 255 255 255 0.079887 0.280687
2.207025 3.43401 -7.570291 -1 0 0 255 255 255 255 0.07985 0.281104
2.207025 4.00758 -6.57684 -1 0 0 255 255 255 255 0.07989 0.281142
2.207025 3.43401 -7.570291 0 -0.866025 0.5000008 255 255 255 255 0.07985 0.281104
2.769732 4.00758 -6.57684 0 -0.866025 0.5000008 255 255 255 255 0.079829 0.281151
2.207025 4.00758 -6.57684 0 -0.866025 0.5000008 255 255 255 255 0.07989 0.281142
2.207025 3.43401 -7.570291 0 -0.4999987 -0.8660262 255 255 255 255 0.07985 0.281104
2.769732 8.55099 -10.52457 -1.376896e-06 -0.4999979 -0.8660266 255 255 255 255 0.079785 0.280667
2.769732 3.43401 -7.570291 0 -0.4999986 -0.8660262 255 255 255 255 0.079792 0.281112
2.769732 4.00758 -6.57684 0 0.5000025 0.866024 255 255 255 255 0.079829 0.281151
2.207025 9.12456 -9.531151 0 0.5000012 0.8660247 255 255 255 255 0.079887 0.280687
2.207025 4.00758 -6.57684 0 0.5000026 0.866024 255 255 255 255 0.07989 0.281142
2.769732 9.12456 -9.531151 0.9874536 -0.1367528 0.07895609 255 255 255 255 0.079824 0.280692
3.70206 13.60002 -13.43964 0.9874535 -0.1367556 0.07895281 255 255 255 255 0.079698 0.28016
3.70206 14.17356 -12.44619 0.9874535 -0.1367561 0.07895228 255 255 255 255 0.079736 0.280169
3.14427 13.67412 -13.48239 -4.481876e-05 -0.4999951 -0.8660282 255 255 255 255 0.079762 0.280151
3.70206 13.60002 -13.43964 -4.765876e-05 -0.4999949 -0.8660284 255 255 255 255 0.079698 0.28016
2.207025 9.12456 -9.531151 -0.9876807 0.135517 -0.07824285 255 255 255 255 0.079887 0.280687
3.14427 13.67412 -13.48239 -0.9876807 0.1355189 -0.07824071 255 255 255 255 0.079762 0.280151
2.207025 8.55099 -10.52457 -0.9876807 0.1355167 -0.0782432 255 255 255 255 0.079846 0.280662
2.769732 9.12456 -9.531151 9.3035e-09 0.500001 0.8660249 255 255 255 255 0.079824 0.280692
3.14427 14.24766 -12.48897 3.0283e-07 0.4999997 0.8660256 255 255 255 255 0.079802 0.280159
0.573558 5.10564 -4.6749 0 0.5000004 0.8660252 255 255 255 255 0.079792 0.281112
-0.573558 10.22265 -7.62921 0 0.5000004 0.8660252 255 255 255 255 0.079824 0.280692
-0.573558 5.10564 -4.6749 0 0.5000004 0.8660251 255 255 255 255 0.079829 0.281151
0.573558 15.73782 -9.73683 0 0.9318147 -0.3629345 255 255 255 255 0.079698 0.28016
-0.573558 15.53301 -10.26267 0 0.9318147 -0.3629345 255 255 255 255 0.079802 0.280159
-0.573558 15.73782 -9.73683 0 0.9318146 -0.3629344 255 255 255 255 0.079736 0.280169
0.573558 9.94128 -8.1165 0 -0.4999988 -0.8660262 255 255 255 255 0.079846 0.280662
-0.573558 4.8243 -5.16222 0 -0.4999988 -0.8660262 255 255 255 255 0.07989 0.281142
-0.573558 9.94128 -8.1165 0 -0.4999987 -0.8660261 255 255 255 255 0.079887 0.280687
0.573558 4.8243 -5.16222 0 -0.8660366 0.4999807 255 255 255 255 0.07985 0.281104
-0.573558 5.10564 -4.6749 0 -0.8660366 0.4999807 255 255 255 255 0.079829 0.281151
-0.573558 4.8243 -5.16222 0 -0.8660365 0.4999807 255 255 255 255 0.07989 0.281142
0.573558 5.10564 -4.6749 1 0 0 255 255 255 255 0.079792 0.281112
0.573558 9.94128 -8.1165 1 0 0 255 255 255 255 0.079846 0.280662
0.573558 10.22265 -7.62921 1 0 0 255 255 255 255 0.079785 0.280667
-0.573558 5.10564 -4.6749 -1 0 0 255 255 255 255 0.079829 0.281151
-0.573558 9.94128 -8.1165 -1 0 0 255 255 255 255 0.079887 0.280687
-0.573558 4.8243 -5.16222 -1 0 0 255 255 255 255 0.07989 0.281142
0.573558 10.22265 -7.62921 0 0.3569717 0.9341152 255 255 255 255 0.079785 0.280667
-0.573558 15.73782 -9.73683 0 0.3569717 0.9341152 255 255 255 255 0.079736 0.280169
-0.573558 10.22265 -7.62921 0 0.3569717 0.9341152 255 255 255 255 0.079824 0.280692
0.573558 15.53301 -10.26267 1 0 0 255 255 255 255 0.079762 0.280151
0.573558 15.73782 -9.73683 1 0 0 255 255 255 255 0.079698 0.28016
-0.573558 9.94128 -8.1165 0 -0.3583253 -0.9335968 255 255 255 255 0.079887 0.280687
0.573558 15.53301 -10.26267 0 -0.3583253 -0.9335968 255 255 255 255 0.079762 0.280151
0.573558 9.94128 -8.1165 0 -0.3583253 -0.9335968 255 255 255 255 0.079846 0.280662
-0.573558 10.22265 -7.62921 -1 0 0 255 255 255 255 0.079824 0.280692
-0.573558 15.53301 -10.26267 -1 0 0 255 255 255 255 0.079802 0.280159
-0.9576 0.443478 -6.59439 0 1 0 255 255 255 255 0.080518 0.278692
1.915203 0.443478 -4.93578 0 1 0 255 255 255 255 0.080181 0.278728
0.9576 0.443478 -6.59439 0 1 0 255 255 255 255 0.080304 0.278689
0.9576 -0.407364 -6.59439 0.8660245 0 -0.5000016 255 255 255 255 0.080304 0.278803
1.915203 0.443478 -4.93578 0.8660244 0 -0.5000017 255 255 255 255 0.080181 0.278728
1.915203 -0.407361 -4.93578 0.8660245 0 -0.5000016 255 255 255 255 0.080182 0.278844
1.915203 -0.407361 -4.93578 0.847408 0 0.5309423 255 255 255 255 0.080182 0.278844
0.876003 0.443478 -3.27717 0.847408 0 0.5309423 255 255 255 255 0.080276 0.278772
0.876003 -0.407361 -3.27717 0.847408 0 0.5309423 255 255 255 255 0.080277 0.278891
0.876003 -0.407361 0.864102 0 0 1 255 255 255 255 0.080277 0.278891
-0.876006 0.443478 0.864102 0 0 1 255 255 255 255 0.080502 0.278775
-0.876006 -0.407361 0.864102 0 0 1 255 255 255 255 0.080501 0.278895
-0.876006 -0.407361 -3.27717 -0.8474087 0 0.5309412 255 255 255 255 0.080501 0.278895
-1.915203 0.443478 -4.93578 -0.8474087 0 0.5309412 255 255 255 255 0.08062 0.278734
-1.915203 -0.407361 -4.93578 -0.8474087 0 0.5309412 255 255 255 255 0.080619 0.27885
-1.915203 -0.407361 -4.93578 -0.8660244 0 -0.5000017 255 255 255 255 0.080619 0.27885
-0.9576 0.443478 -6.59439 -0.8660245 0 -0.5000016 255 255 255 255 0.080518 0.278692
-0.9576 -0.407364 -6.59439 -0.8660245 0 -0.5000016 255 255 255 255 0.080518 0.278806
-0.9576 -0.407364 -6.59439 0 0 -1 255 255 255 255 0.080518 0.278806
0.9576 0.443478 -6.59439 0 0 -1 255 255 255 255 0.080304 0.278689
0.9576 -0.407364 -6.59439 0 0 -1 255 255 255 255 0.080304 0.278803
-0.9576 -0.407364 -6.59439 0 -1 1.805809e-06 255 255 255 255 0.080518 0.278806
1.915203 -0.407361 -4.93578 0 -1 9.187459e-07 255 255 255 255 0.080182 0.278844
-1.915203 -0.407361 -4.93578 0 -1 9.187453e-07 255 255 255 255 0.080619 0.27885
-0.876006 -0.407361 -3.27717 0 -1 0 255 255 255 255 0.080501 0.278895
0.876003 -0.407361 -3.27717 0 -1 0 255 255 255 255 0.080277 0.278891
-0.876006 0.443478 -3.27717 0 1 0 255 255 255 255 0.080502 0.278775
0.876003 0.443478 -3.27717 0 1 0 255 255 255 255 0.080276 0.278772
-0.876006 -0.407361 0.864102 0 -1 0 255 255 255 255 0.080501 0.278895
0.876003 0.443478 -3.27717 1 0 0 255 255 255 255 0.080276 0.278772
0.876003 -0.407361 0.864102 1 0 0 255 255 255 255 0.080277 0.278891
0.876003 -0.407361 -3.27717 1 0 0 255 255 255 255 0.080277 0.278891
0.876003 0.443478 0.864102 0 1 0 255 255 255 255 0.080276 0.278772
-0.876006 -0.407361 -3.27717 -1 0 0 255 255 255 255 0.080501 0.278895
-0.876006 0.443478 0.864102 -1 0 0 255 255 255 255 0.080502 0.278775
-0.876006 0.443478 -3.27717 -1 0 0 255 255 255 255 0.080502 0.278775
-2.769732 4.00758 -6.57684 -1 0 0 255 255 255 255 0.079792 0.281112
-2.769732 8.55099 -10.52457 -1 0 0 255 255 255 255 0.079824 0.280692
-2.769732 3.43401 -7.570291 -1 0 0 255 255 255 255 0.079829 0.281151
-3.70206 14.17356 -12.44619 -0.1516144 0.8560202 -0.494209 255 255 255 255 0.079698 0.28016
-3.14427 13.67412 -13.48239 -0.1516045 0.856024 -0.4942055 255 255 255 255 0.079802 0.280159
-3.70206 13.60002 -13.43964 -0.1515975 0.8560266 -0.494203 255 255 255 255 0.079736 0.280169
-2.207025 9.12456 -9.531151 1 0 0 255 255 255 255 0.079846 0.280662
-2.207025 3.43401 -7.570291 1 0 0 255 255 255 255 0.07989 0.281142
-2.207025 8.55099 -10.52457 1 0 0 255 255 255 255 0.079887 0.280687
-2.207025 4.00758 -6.57684 0 -0.866025 0.5000008 255 255 255 255 0.07985 0.281104
-2.769732 3.43401 -7.570291 0 -0.866025 0.5000008 255 255 255 255 0.079829 0.281151
-2.207025 3.43401 -7.570291 0 -0.866025 0.5000008 255 255 255 255 0.07989 0.281142
-2.207025 4.00758 -6.57684 0 0.5000025 0.866024 255 255 255 255 0.07985 0.281104
-2.769732 9.12456 -9.531151 -9.303502e-09 0.500001 0.8660249 255 255 255 255 0.079785 0.280667
-2.769732 4.00758 -6.57684 0 0.5000026 0.866024 255 255 255 255 0.079792 0.281112
-2.769732 3.43401 -7.570291 0 -0.4999987 -0.8660262 255 255 255 255 0.079829 0.281151
-2.207025 8.55099 -10.52457 0 -0.4999982 -0.8660265 255 255 255 255 0.079887 0.280687
-2.207025 3.43401 -7.570291 0 -0.4999986 -0.8660262 255 255 255 255 0.07989 0.281142
-2.769732 9.12456 -9.531151 -0.9874536 -0.1367528 0.07895609 255 255 255 255 0.079785 0.280667
-3.70206 13.60002 -13.43964 -0.9874535 -0.1367556 0.07895281 255 255 255 255 0.079736 0.280169
-2.769732 8.55099 -10.52457 -0.9874537 -0.1367523 0.07895662 255 255 255 255 0.079824 0.280692
-3.14427 14.24766 -12.48897 -3.0283e-07 0.4999997 0.8660256 255 255 255 255 0.079762 0.280151
-3.70206 14.17356 -12.44619 -3.220196e-07 0.4999996 0.8660256 255 255 255 255 0.079698 0.28016
-2.207025 8.55099 -10.52457 0.9876807 0.1355174 -0.07824311 255 255 255 255 0.079887 0.280687
-3.14427 14.24766 -12.48897 0.9876807 0.1355184 -0.07824036 255 255 255 255 0.079762 0.280151
-2.207025 9.12456 -9.531151 0.9876807 0.1355173 -0.07824355 255 255 255 255 0.079846 0.280662
-2.769732 8.55099 -10.52457 1.376896e-06 -0.4999979 -0.8660266 255 255 255 255 0.079824 0.280692
-3.14427 13.67412 -13.48239 4.481876e-05 -0.4999951 -0.8660282 255 255 255 255 0.079802 0.280159
1.994199 8.71728 -9.95829 -0.8660262 0.2499975 0.4330124 255 255 255 255 0.080181 0.278728
0.997101 7.08441 -11.00976 -0.8660262 0.2499975 0.4330124 255 255 255 255 0.080304 0.278803
1.994199 7.94793 -9.514111 -0.8660262 0.2499975 0.4330124 255 255 255 255 0.080182 0.278844
0.997101 8.81142 -8.01846 -0.8660244 -0.2499992 -0.4330153 255 255 255 255 0.080277 0.278891
1.994199 8.71728 -9.95829 -0.8660243 -0.2499992 -0.4330153 255 255 255 255 0.080181 0.278728
1.994199 7.94793 -9.514111 -0.8660243 -0.2499992 -0.4330153 255 255 255 255 0.080182 0.278844
-0.997101 9.5808 -8.46264 0 -0.4999813 -0.8660362 255 255 255 255 0.080502 0.278775
0.997101 8.81142 -8.01846 0 -0.4999813 -0.8660362 255 255 255 255 0.080277 0.278891
-0.997101 8.81142 -8.01846 0 -0.4999813 -0.8660362 255 255 255 255 0.080501 0.278895
-1.994199 7.94793 -9.514111 0.8660257 -0.249996 -0.4330144 255 255 255 255 0.080619 0.27885
-0.997101 9.5808 -8.46264 0.8660249 -0.2499932 -0.4330178 255 255 255 255 0.080502 0.278775
-0.997101 8.81142 -8.01846 0.8660243 -0.2499916 -0.4330197 255 255 255 255 0.080501 0.278895
-0.997098 7.08441 -11.00976 0.8660256 0.2499982 0.4330134 255 255 255 255 0.080518 0.278806
-1.994199 8.71728 -9.95829 0.8660256 0.2499982 0.4330134 255 255 255 255 0.08062 0.278734
-1.994199 7.94793 -9.514111 0.8660256 0.2499982 0.4330134 255 255 255 255 0.080619 0.27885
0.997101 7.85376 -11.45394 0 0.4999965 0.8660274 255 255 255 255 0.080304 0.278689
-0.997098 7.08441 -11.00976 0 0.4999965 0.8660274 255 255 255 255 0.080518 0.278806
0.997101 7.08441 -11.00976 0 0.4999965 0.8660274 255 255 255 255 0.080304 0.278803
1.274229 6.84441 -11.42544 0.866025 -0.2499986 -0.4330143 255 255 255 255 0.080304 0.278803
2.548455 8.71728 -9.95829 0.866025 -0.2499986 -0.4330143 255 255 255 255 0.080181 0.278728
2.548455 7.94793 -9.514111 0.866025 -0.2499985 -0.4330142 255 255 255 255 0.080182 0.278844
2.548455 7.94793 -9.514111 0.8660253 0.2499995 0.4330133 255 255 255 255 0.080182 0.278844
1.274229 9.820801 -8.046961 0.8660259 0.250002 0.4330106 255 255 255 255 0.080276 0.278772
1.274229 9.05142 -7.60275 0.866026 0.2500029 0.4330097 255 255 255 255 0.080277 0.278891
1.274229 9.05142 -7.60275 0 0.5000069 0.8660214 255 255 255 255 0.080277 0.278891
-1.274229 9.820801 -8.046961 0 0.5000069 0.8660214 255 255 255 255 0.080502 0.278775
-1.274229 9.05142 -7.60275 0 0.5000069 0.8660214 255 255 255 255 0.080501 0.278895
-2.548455 7.94793 -9.514111 -0.8660253 0.2499995 0.4330133 255 255 255 255 0.080619 0.27885
-1.274229 9.820801 -8.046961 -0.8660259 0.250002 0.4330106 255 255 255 255 0.080502 0.278775
-2.548455 8.71728 -9.95829 -0.866025 0.2499986 0.4330142 255 255 255 255 0.08062 0.278734
-2.548455 7.94793 -9.514111 -0.866025 -0.2499986 -0.4330143 255 255 255 255 0.080619 0.27885
-1.274229 7.61376 -11.86962 -0.8660251 -0.2499986 -0.4330142 255 255 255 255 0.080518 0.278692
-1.274229 6.84441 -11.42544 -0.866025 -0.2499986 -0.4330142 255 255 255 255 0.080518 0.278806
-1.274229 6.84441 -11.42544 0 -0.4999965 -0.8660274 255 255 255 255 0.080518 0.278806
1.274229 7.61376 -11.86962 0 -0.4999965 -0.8660274 255 255 255 255 0.080304 0.278689
1.274229 6.84441 -11.42544 0 -0.4999965 -0.8660274 255 255 255 255 0.080304 0.278803
2.548455 7.94793 -9.514111 -5.996066e-07 -0.8660277 0.499996 255 255 255 255 0.080182 0.278844
0.997101 7.08441 -11.00976 -2.71515e-06 -0.8660203 0.5000088 255 255 255 255 0.080304 0.278803
1.274229 6.84441 -11.42544 -3.014997e-06 -0.8660202 0.5000091 255 255 255 255 0.080304 0.278803
0.997101 7.85376 -11.45394 2.831235e-06 0.8660202 -0.500009 255 255 255 255 0.080304 0.278689
2.548455 8.71728 -9.95829 5.975121e-06 0.866021 -0.5000075 255 255 255 255 0.080181 0.278728
1.274229 7.61376 -11.86962 2.987588e-06 0.8660203 -0.500009 255 255 255 255 0.080304 0.278689
1.274229 9.05142 -7.60275 -2.441167e-06 -0.866034 0.4999851 255 255 255 255 0.080277 0.278891
1.994199 7.94793 -9.514111 -3.030209e-07 -0.8660281 0.4999954 255 255 255 255 0.080182 0.278844
1.994199 8.71728 -9.95829 0 0.8660228 -0.5000045 255 255 255 255 0.080181 0.278728
1.274229 9.820801 -8.046961 0 0.8660228 -0.5000045 255 255 255 255 0.080276 0.278772
2.548455 8.71728 -9.95829 0 0.8660228 -0.5000045 255 255 255 255 0.080181 0.278728
-1.274229 9.05142 -7.60275 2.413107e-06 -0.866034 0.4999851 255 255 255 255 0.080501 0.278895
0.997101 8.81142 -8.01846 -3.047262e-06 -0.8660342 0.4999849 255 255 255 255 0.080277 0.278891
0.997101 9.5808 -8.46264 0 0.8660183 -0.5000123 255 255 255 255 0.080276 0.278772
-1.274229 9.820801 -8.046961 0 0.8660184 -0.5000122 255 255 255 255 0.080502 0.278775
1.274229 9.820801 -8.046961 0 0.8660184 -0.5000123 255 255 255 255 0.080276 0.278772
-1.994199 7.94793 -9.514111 1.23551e-06 -0.8660313 0.4999897 255 255 255 255 0.080619 0.27885
-2.548455 7.94793 -9.514111 0 -0.8660322 0.4999882 255 255 255 255 0.080619 0.27885
-1.274229 9.820801 -8.046961 0 0.8660228 -0.5000045 255 255 255 255 0.080502 0.278775
-1.994199 8.71728 -9.95829 0 0.8660228 -0.5000045 255 255 255 255 0.08062 0.278734
-2.548455 8.71728 -9.95829 0 0.8660228 -0.5000045 255 255 255 255 0.08062 0.278734
-1.274229 6.84441 -11.42544 0 -0.8660228 0.5000045 255 255 255 255 0.080518 0.278806
-1.994199 7.94793 -9.514111 0 -0.8660228 0.5000045 255 255 255 255 0.080619 0.27885
-2.548455 7.94793 -9.514111 0 -0.8660228 0.5000045 255 255 255 255 0.080619 0.27885
-1.994199 8.71728 -9.95829 0 0.8660228 -0.5000045 255 255 255 255 0.08062 0.278734
-1.274229 7.61376 -11.86962 0 0.8660228 -0.5000045 255 255 255 255 0.080518 0.278692
-2.548455 8.71728 -9.95829 0 0.8660228 -0.5000045 255 255 255 255 0.08062 0.278734
-1.274229 6.84441 -11.42544 3.396359e-06 -0.8660204 0.5000088 255 255 255 255 0.080518 0.278806
-0.997098 7.85376 -11.45394 -3.852871e-06 0.8660205 -0.5000086 255 255 255 255 0.080518 0.278692
-1.274229 7.61376 -11.86962 -3.427519e-06 0.8660204 -0.5000088 255 255 255 255 0.080518 0.278692
-0.511242 -7.79634 -1.446624 0 -0.5000011 -0.8660248 255 255 255 255 0.080457 0.279627
0.511242 3.65388 -8.05743 0 -0.5000011 -0.8660248 255 255 255 255 0.080353 0.278825
0.511242 -7.79634 -1.446624 0 -0.5000011 -0.8660248 255 255 255 255 0.080354 0.279625
-1.022484 -7.3536 -0.679761 -0.8660245 -0.2500013 -0.4330138 255 255 255 255 0.080504 0.279659
-0.511242 3.65388 -8.05743 -0.8660274 -0.2499985 -0.4330097 255 255 255 255 0.080458 0.278827
-0.511242 -7.79634 -1.446624 -0.8660244 -0.2500015 -0.433014 255 255 255 255 0.080457 0.279627
-0.511242 -6.91086 0.0871023 -0.8660244 0.250001 0.4330142 255 255 255 255 0.080447 0.279689
-1.022484 4.09665 -7.29057 -0.8660237 0.2500017 0.4330152 255 255 255 255 0.080507 0.278849
-1.022484 -7.3536 -0.679761 -0.8660244 0.250001 0.4330141 255 255 255 255 0.080504 0.279659
0.511242 -6.91086 0.0871023 0 0.5000004 0.8660252 255 255 255 255 0.080342 0.279687
-0.511242 4.53939 -6.52371 0 0.5000004 0.8660252 255 255 255 255 0.080449 0.27887
-0.511242 -6.91086 0.0871023 0 0.5000004 0.8660251 255 255 255 255 0.080447 0.279689
1.022484 -7.3536 -0.679761 0.8660244 0.2500011 0.4330142 255 255 255 255 0.080297 0.279655
0.511242 4.53939 -6.52371 0.8660237 0.2500016 0.4330152 255 255 255 255 0.08034 0.278869
0.511242 -6.91086 0.0871023 0.8660244 0.2500011 0.433014 255 255 255 255 0.080342 0.279687
0.511242 -7.79634 -1.446624 0.8660245 -0.2500009 -0.433014 255 255 255 255 0.080354 0.279625
1.022484 4.09665 -7.29057 0.8660272 -0.249999 -0.4330097 255 255 255 255 0.080293 0.278846
1.022484 -7.3536 -0.679761 0.8660243 -0.250001 -0.4330142 255 255 255 255 0.080297 0.279655
0.511242 -6.91086 0.0871023 3.703073e-08 -0.8660298 0.4999924 255 255 255 255 0.080342 0.279687
-0.511242 -6.91086 0.0871023 -3.703074e-08 -0.8660298 0.4999924 255 255 255 255 0.080447 0.279689
-0.511242 -7.79634 -1.446624 -1.851545e-08 -0.8660298 0.4999925 255 255 255 255 0.080457 0.279627
-1.274229 3.97362 -9.76797 0 0.8660287 -0.4999943 255 255 255 255 0.080518 0.278692
2.548455 5.07711 -7.85664 0 0.8660258 -0.4999994 255 255 255 255 0.080181 0.278728
1.274229 3.97362 -9.76797 0 0.8660287 -0.4999943 255 255 255 255 0.080304 0.278689
2.548455 4.09665 -7.29057 0.8660235 -0.2500019 -0.4330153 255 255 255 255 0.080182 0.278844
1.274229 3.97362 -9.76797 0.8660236 -0.2500019 -0.4330153 255 255 255 255 0.080304 0.278689
2.548455 5.07711 -7.85664 0.8660235 -0.2500019 -0.4330153 255 255 255 255 0.080181 0.278728
1.274229 5.20014 -5.37921 0.8660253 0.2500036 0.4330108 255 255 255 255 0.080277 0.278891
2.548455 5.07711 -7.85664 0.8660259 0.2500011 0.4330112 255 255 255 255 0.080181 0.278728
1.274229 6.18063 -5.94531 0.866025 0.250005 0.4330106 255 255 255 255 0.080276 0.278772
1.274229 5.20014 -5.37921 0 0.5000093 0.86602 255 255 255 255 0.080277 0.278891
-1.274229 6.18063 -5.94531 0 0.5000093 0.86602 255 255 255 255 0.080502 0.278775
-1.274229 5.20014 -5.37921 0 0.5000092 0.86602 255 255 255 255 0.080501 0.278895
-1.274229 5.20014 -5.37921 -0.8660253 0.2500036 0.4330108 255 255 255 255 0.080501 0.278895
-2.548455 5.07711 -7.85664 -0.8660259 0.2500011 0.4330112 255 255 255 255 0.08062 0.278734
-2.548455 4.09665 -7.29057 -0.8660262 0.2499996 0.4330114 255 255 255 255 0.080619 0.27885
-2.548455 4.09665 -7.29057 -0.8660241 -0.2499997 -0.4330156 255 255 255 255 0.080619 0.27885
-1.274229 3.97362 -9.76797 -0.8660249 -0.2499958 -0.4330162 255 255 255 255 0.080518 0.278692
-1.274229 2.993124 -9.2019 -0.8660253 -0.2499935 -0.4330165 255 255 255 255 0.080518 0.278806
-1.274229 2.993124 -9.2019 0 -0.4999869 -0.866033 255 255 255 255 0.080518 0.278806
1.274229 3.97362 -9.76797 0 -0.4999869 -0.866033 255 255 255 255 0.080304 0.278689
1.274229 2.993124 -9.2019 0 -0.4999868 -0.866033 255 255 255 255 0.080304 0.278803
1.022484 4.09665 -7.29057 1.887127e-06 -0.8660266 0.4999979 255 255 255 255 0.080293 0.278846
1.274229 2.993124 -9.2019 4.313576e-06 -0.866024 0.5000026 255 255 255 255 0.080304 0.278803
2.548455 4.09665 -7.29057 0 -0.8660269 0.4999973 255 255 255 255 0.080182 0.278844
1.274229 5.20014 -5.37921 -1.884729e-06 -0.8660333 0.4999865 255 255 255 255 0.080277 0.278891
0.511242 4.53939 -6.52371 -4.813607e-06 -0.8660331 0.4999868 255 255 255 255 0.08034 0.278869
-0.511242 4.53939 -6.52371 4.813607e-06 -0.8660331 0.4999868 255 255 255 255 0.080449 0.27887
-1.274229 5.20014 -5.37921 1.884729e-06 -0.8660333 0.4999865 255 255 255 255 0.080501 0.278895
-1.022484 4.09665 -7.29057 -1.887127e-06 -0.8660266 0.4999979 255 255 255 255 0.080507 0.278849
-2.548455 4.09665 -7.29057 0 -0.8660269 0.4999973 255 255 255 255 0.080619 0.27885
-1.274229 2.993124 -9.2019 -5.363627e-06 -0.8660233 0.5000038 255 255 255 255 0.080518 0.278806
-0.511242 3.65388 -8.05743 -2.203341e-05 -0.8660203 0.5000087 255 255 255 255 0.080458 0.278827
0.511242 3.65388 -8.05743 1.29931e-05 -0.866023 0.5000042 255 255 255 255 0.080353 0.278825
-1.274229 6.18063 -5.94531 0 0.8660229 -0.5000044 255 255 255 255 0.080502 0.278775
1.274229 6.18063 -5.94531 0 0.8660228 -0.5000044 255 255 255 255 0.080276 0.278772
-0.573558 7.4529 -12.42651 0 -0.4999988 -0.8660261 255 255 255 255 0.079785 0.280667
-0.573558 12.38874 -15.70869 0 0.7802147 -0.6255117 255 255 255 255 0.079762 0.280151
-0.573558 2.617272 -8.98491 0 0.4999973 0.8660269 255 255 255 255 0.07985 0.281104
-0.573558 2.33592 -9.47223 0 -0.8660266 0.4999979 255 255 255 255 0.079792 0.281112
-0.573558 7.73427 -11.93919 -1 0 0 255 255 255 255 0.079846 0.280662
-0.573558 12.03576 -16.14897 0 -0.630479 -0.7762063 255 255 255 255 0.079698 0.28016
0.573558 12.38874 -15.70869 0 0.6293591 0.7771146 255 255 255 255 0.079802 0.280159
0.573558 12.03576 -16.14897 1 0 0 255 255 255 255 0.079736 0.280169
2.826747 13.03302 -12.45 -0.863129 0.3199086 0.3907259 255 255 255 255 0.080181 0.278728
1.413375 14.25705 -10.32993 -0.8631337 -0.1784322 -0.4724006 255 255 255 255 0.080276 0.278772
-1.413375 14.25705 -10.32993 0 -0.4275999 -0.9039681 255 255 255 255 0.080502 0.278775
1.413375 14.25705 -10.32993 0 -0.4276 -0.9039681 255 255 255 255 0.080276 0.278772
1.371342 13.45128 -9.94878 0 -0.4276 -0.9039681 255 255 255 255 0.080277 0.278891
-1.413375 14.25705 -10.32993 0.8631337 -0.1784322 -0.4724006 255 255 255 255 0.080502 0.278775
-1.371342 11.07603 -14.0628 0.8631302 0.3198891 0.3907393 255 255 255 255 0.080518 0.278806
-1.413372 11.80902 -14.57004 0.8631302 0.3198891 0.3907393 255 255 255 255 0.080518 0.278692
-2.826747 13.03302 -12.45 0.8631302 0.3198891 0.3907393 255 255 255 255 0.08062 0.278734
-1.413372 11.80902 -14.57004 0 0.5690464 0.8223053 255 255 255 255 0.080518 0.278692
1.709247 11.55276 -15.01386 0.8618028 -0.3341897 -0.3815931 255 255 255 255 0.080304 0.278689
3.4185 13.03302 -12.45 0.8618044 0.163377 0.4802094 255 255 255 255 0.080181 0.278728
1.709244 14.51328 -9.88611 0 0.4121569 0.9111129 255 255 255 255 0.080276 0.278772
-1.709247 14.51328 -9.88611 -0.8618045 0.1633732 0.4802105 255 255 255 255 0.080502 0.278775
-3.4185 13.03302 -12.45 -0.8618006 -0.3342072 -0.3815826 255 255 255 255 0.08062 0.278734
-1.709244 11.55276 -15.01386 0 -0.5829725 -0.8124918 255 255 255 255 0.080518 0.278692
2.742684 12.26367 -12.00579 2.065127e-05 -0.8660268 0.4999977 255 255 255 255 0.080182 0.278844
1.371342 11.07603 -14.0628 2.065127e-05 -0.8660268 0.4999977 255 255 255 255 0.080304 0.278803
1.658418 10.82742 -14.49342 2.065127e-05 -0.8660268 0.4999977 255 255 255 255 0.080304 0.278803
1.709247 11.55276 -15.01386 3.189278e-05 0.8660173 -0.5000141 255 255 255 255 0.080304 0.278689
1.413375 11.80902 -14.57004 3.189278e-05 0.8660173 -0.5000141 255 255 255 255 0.080304 0.278689
2.826747 13.03302 -12.45 3.189278e-05 0.8660173 -0.5000141 255 255 255 255 0.080181 0.278728
1.658415 13.69989 -9.51816 -1.130912e-05 -0.8660299 0.4999923 255 255 255 255 0.080277 0.278891
1.371342 13.45128 -9.94878 -1.130912e-05 -0.8660299 0.4999924 255 255 255 255 0.080277 0.278891
2.742684 12.26367 -12.00579 -1.130912e-05 -0.8660299 0.4999924 255 255 255 255 0.080182 0.278844
1.413375 14.25705 -10.32993 1.555313e-05 0.8660286 -0.4999944 255 255 255 255 0.080276 0.278772
-1.658415 13.69989 -9.51816 0 -0.866033 0.4999868 255 255 255 255 0.080501 0.278895
-1.371342 13.45128 -9.94878 0 -0.8660331 0.4999868 255 255 255 255 0.080501 0.278895
1.371342 13.45128 -9.94878 0 -0.8660331 0.4999868 255 255 255 255 0.080277 0.278891
1.413375 14.25705 -10.32993 0 0.8660331 -0.4999867 255 255 255 255 0.080276 0.278772
-1.413375 14.25705 -10.32993 0 0.8660331 -0.4999867 255 255 255 255 0.080502 0.278775
-1.709247 14.51328 -9.88611 0 0.8660331 -0.4999866 255 255 255 255 0.080502 0.278775
-2.742684 12.26367 -12.00579 1.140746e-05 -0.8660299 0.4999924 255 255 255 255 0.080619 0.27885
-1.371342 13.45128 -9.94878 1.140746e-05 -0.8660299 0.4999924 255 255 255 255 0.080501 0.278895
-1.658415 13.69989 -9.51816 1.140746e-05 -0.8660299 0.4999923 255 255 255 255 0.080501 0.278895
-1.709247 14.51328 -9.88611 -1.546046e-05 0.8660287 -0.4999944 255 255 255 255 0.080502 0.278775
-1.413375 14.25705 -10.32993 -1.546046e-05 0.8660286 -0.4999944 255 255 255 255 0.080502 0.278775
-2.826747 13.03302 -12.45 -1.546046e-05 0.8660286 -0.4999944 255 255 255 255 0.08062 0.278734
-1.658415 10.82742 -14.49342 -2.070055e-05 -0.8660268 0.4999977 255 255 255 255 0.080518 0.278806
-1.371342 11.07603 -14.0628 -2.070055e-05 -0.8660268 0.4999977 255 255 255 255 0.080518 0.278806
-2.742684 12.26367 -12.00579 -2.070055e-05 -0.8660268 0.4999977 255 255 255 255 0.080619 0.27885
-2.826747 13.03302 -12.45 -3.203163e-05 0.8660173 -0.5000141 255 255 255 255 0.08062 0.278734
-1.413372 11.80902 -14.57004 -3.203163e-05 0.8660173 -0.5000141 255 255 255 255 0.080518 0.278692
-1.709244 11.55276 -15.01386 -3.203163e-05 0.8660173 -0.5000141 255 255 255 255 0.080518 0.278692
1.371342 11.07603 -14.0628 0 -0.8660327 0.4999874 255 255 255 255 0.080304 0.278803
1.413375 11.80902 -14.57004 0 0.8660081 -0.50003 255 255 255 255 0.080304 0.278689
2.769732 8.55099 -10.52457 1 0 0 255 255 255 255 0.079785 0.280667
3.70206 13.60002 -13.43964 0.1515975 0.8560266 -0.494203 255 255 255 255 0.079698 0.28016
2.207025 8.55099 -10.52457 -1 0 0 255 255 255 255 0.079846 0.280662
2.769732 3.43401 -7.570291 0 -0.866025 0.5000008 255 255 255 255 0.079792 0.281112
2.207025 8.55099 -10.52457 0 -0.4999981 -0.8660265 255 255 255 255 0.079846 0.280662
2.769732 8.55099 -10.52457 0.9874537 -0.1367523 0.07895662 255 255 255 255 0.079785 0.280667
3.14427 14.24766 -12.48897 -0.9876807 0.1355191 -0.07824036 255 255 255 255 0.079802 0.280159
3.70206 14.17356 -12.44619 3.220196e-07 0.4999996 0.8660256 255 255 255 255 0.079736 0.280169
0.573558 10.22265 -7.62921 0 0.5000004 0.8660251 255 255 255 255 0.079785 0.280667
0.573558 15.53301 -10.26267 0 0.9318146 -0.3629344 255 255 255 255 0.079762 0.280151
0.573558 4.8243 -5.16222 0 -0.4999987 -0.8660261 255 255 255 255 0.07985 0.281104
0.573558 5.10564 -4.6749 0 -0.8660365 0.4999807 255 255 255 255 0.079792 0.281112
0.573558 4.8243 -5.16222 1 0 0 255 255 255 255 0.07985 0.281104
0.573558 15.73782 -9.73683 0 0.3569717 0.9341152 255 255 255 255 0.079698 0.28016
-0.573558 15.53301 -10.26267 0 -0.3583253 -0.9335968 255 255 255 255 0.079802 0.280159
-0.573558 15.73782 -9.73683 -1 0 0 255 255 255 255 0.079736 0.280169
-1.915203 0.443478 -4.93578 0 1 0 255 255 255 255 0.08062 0.278734
0.9576 0.443478 -6.59439 0.8660245 0 -0.5000016 255 255 255 255 0.080304 0.278689
1.915203 0.443478 -4.93578 0.847408 0 0.5309423 255 255 255 255 0.080181 0.278728
0.876003 0.443478 0.864102 0 0 1 255 255 255 255 0.080276 0.278772
-0.876006 0.443478 -3.27717 -0.8474087 0 0.5309412 255 255 255 255 0.080502 0.278775
-1.915203 0.443478 -4.93578 -0.8660245 0 -0.5000016 255 255 255 255 0.08062 0.278734
-0.9576 0.443478 -6.59439 0 0 -1 255 255 255 255 0.080518 0.278692
0.9576 -0.407364 -6.59439 0 -1 1.80581e-06 255 255 255 255 0.080304 0.278803
0.876003 -0.407361 0.864102 0 -1 0 255 255 255 255 0.080277 0.278891
0.876003 0.443478 0.864102 1 0 0 255 255 255 255 0.080276 0.278772
-0.876006 0.443478 0.864102 0 1 0 255 255 255 255 0.080502 0.278775
-0.876006 -0.407361 0.864102 -1 0 0 255 255 255 255 0.080501 0.278895
-2.769732 9.12456 -9.531151 -1 0 0 255 255 255 255 0.079785 0.280667
-3.14427 14.24766 -12.48897 -0.1516214 0.8560175 -0.4942115 255 255 255 255 0.079762 0.280151
-2.207025 4.00758 -6.57684 1 0 0 255 255 255 255 0.07985 0.281104
-2.769732 4.00758 -6.57684 0 -0.866025 0.5000008 255 255 255 255 0.079792 0.281112
-2.207025 9.12456 -9.531151 0 0.5000012 0.8660248 255 255 255 255 0.079846 0.280662
-3.70206 14.17356 -12.44619 -0.9874535 -0.1367561 0.07895228 255 255 255 255 0.079698 0.28016
-3.14427 13.67412 -13.48239 0.9876807 0.1355185 -0.07823993 255 255 255 255 0.079802 0.280159
-3.70206 13.60002 -13.43964 4.765876e-05 -0.4999949 -0.8660284 255 255 255 255 0.079736 0.280169
1.994199 8.71728 -9.95829 -0.8660262 0.2499975 0.4330124 255 255 255 255 0.080181 0.278728
0.997101 7.85376 -11.45394 -0.8660262 0.2499976 0.4330124 255 255 255 255 0.080304 0.278689
0.997101 7.08441 -11.00976 -0.8660262 0.2499975 0.4330124 255 255 255 255 0.080304 0.278803
0.997101 8.81142 -8.01846 -0.8660262 -0.2499899 -0.4330168 255 255 255 255 0.080277 0.278891
0.997101 9.5808 -8.46264 -0.8660263 -0.2499899 -0.4330168 255 255 255 255 0.080276 0.278772
1.994199 8.71728 -9.95829 -0.8660262 -0.2499899 -0.4330168 255 255 255 255 0.080181 0.278728
-0.997101 9.5808 -8.46264 0 -0.4999813 -0.8660362 255 255 255 255 0.080502 0.278775
0.997101 9.5808 -8.46264 0 -0.4999813 -0.8660362 255 255 255 255 0.080276 0.278772
0.997101 8.81142 -8.01846 0 -0.4999813 -0.8660362 255 255 255 255 0.080277 0.278891
-1.994199 8.71728 -9.95829 0.8660263 -0.2499975 -0.4330124 255 255 255 255 0.08062 0.278734
-0.997098 7.08441 -11.00976 0.8660256 0.2499982 0.4330134 255 255 255 255 0.080518 0.278806
-0.997098 7.85376 -11.45394 0.8660256 0.2499982 0.4330134 255 255 255 255 0.080518 0.278692
-1.994199 8.71728 -9.95829 0.8660256 0.2499982 0.4330134 255 255 255 255 0.08062 0.278734
-0.997098 7.85376 -11.45394 0 0.4999965 0.8660274 255 255 255 255 0.080518 0.278692
1.274229 7.61376 -11.86962 0.866025 -0.2499986 -0.4330142 255 255 255 255 0.080304 0.278689
2.548455 8.71728 -9.95829 0.866025 0.2499986 0.4330142 255 255 255 255 0.080181 0.278728
1.274229 9.05142 -7.60275 0 0.5000069 0.8660214 255 255 255 255 0.080277 0.278891
1.274229 9.820801 -8.046961 0 0.5000069 0.8660214 255 255 255 255 0.080276 0.278772
-1.274229 9.820801 -8.046961 0 0.5000069 0.8660214 255 255 255 255 0.080502 0.278775
-1.274229 9.05142 -7.60275 -0.866026 0.2500029 0.4330097 255 255 255 255 0.080501 0.278895
-2.548455 8.71728 -9.95829 -0.8660251 -0.2499986 -0.4330142 255 255 255 255 0.08062 0.278734
-1.274229 7.61376 -11.86962 0 -0.4999965 -0.8660274 255 255 255 255 0.080518 0.278692
0.997101 7.85376 -11.45394 0 0.8660237 -0.5000029 255 255 255 255 0.080304 0.278689
1.994199 8.71728 -9.95829 0 0.8660237 -0.5000029 255 255 255 255 0.080181 0.278728
2.548455 8.71728 -9.95829 0 0.8660237 -0.5000029 255 255 255 255 0.080181 0.278728
1.994199 8.71728 -9.95829 -9.947546e-06 0.8660212 -0.5000073 255 255 255 255 0.080181 0.278728
0.997101 9.5808 -8.46264 -9.947547e-06 0.8660212 -0.5000073 255 255 255 255 0.080276 0.278772
1.274229 9.820801 -8.046961 -9.947546e-06 0.8660212 -0.5000073 255 255 255 255 0.080276 0.278772
-0.997101 8.81142 -8.01846 3.012236e-06 -0.8660342 0.4999849 255 255 255 255 0.080501 0.278895
0.997101 9.5808 -8.46264 0 0.8660183 -0.5000122 255 255 255 255 0.080276 0.278772
-0.997101 9.5808 -8.46264 4.95624e-06 0.8660197 -0.5000098 255 255 255 255 0.080502 0.278775
-1.274229 9.820801 -8.046961 4.956304e-06 0.8660198 -0.5000098 255 255 255 255 0.080502 0.278775
-1.994199 8.71728 -9.95829 1.103334e-06 0.8660213 -0.500007 255 255 255 255 0.08062 0.278734
-0.997098 7.08441 -11.00976 3.817844e-06 -0.8660205 0.5000086 255 255 255 255 0.080518 0.278806
-0.511242 3.65388 -8.05743 0 -0.5000011 -0.8660248 255 255 255 255 0.080458 0.278827
-1.022484 4.09665 -7.29057 -0.8660275 -0.2499983 -0.4330095 255 255 255 255 0.080507 0.278849
-0.511242 4.53939 -6.52371 -0.8660237 0.2500017 0.4330152 255 255 255 255 0.080449 0.27887
0.511242 4.53939 -6.52371 0 0.5000004 0.8660251 255 255 255 255 0.08034 0.278869
1.022484 4.09665 -7.29057 0.8660237 0.2500016 0.4330152 255 255 255 255 0.080293 0.278846
0.511242 3.65388 -8.05743 0.8660274 -0.2499989 -0.4330095 255 255 255 255 0.080353 0.278825
0.511242 -7.79634 -1.446624 0 -0.8660297 0.4999925 255 255 255 255 0.080354 0.279625
1.022484 -7.3536 -0.679761 5.554589e-08 -0.8660298 0.4999924 255 255 255 255 0.080297 0.279655
-1.022484 -7.3536 -0.679761 -1.481225e-07 -0.8660298 0.4999925 255 255 255 255 0.080504 0.279659
-2.548455 5.07711 -7.85664 0 0.8660258 -0.4999993 255 255 255 255 0.08062 0.278734
2.548455 4.09665 -7.29057 0.8660253 -0.2499935 -0.4330165 255 255 255 255 0.080182 0.278844
1.274229 2.993124 -9.2019 0.8660253 -0.2499935 -0.4330165 255 255 255 255 0.080304 0.278803
1.274229 3.97362 -9.76797 0.8660253 -0.2499936 -0.4330166 255 255 255 255 0.080304 0.278689
2.548455 4.09665 -7.29057 0.8660262 0.2499996 0.4330114 255 255 255 255 0.080182 0.278844
1.274229 6.18063 -5.94531 0 0.5000092 0.86602 255 255 255 255 0.080276 0.278772
-1.274229 6.18063 -5.94531 -0.866025 0.250005 0.4330106 255 255 255 255 0.080502 0.278775
-2.548455 5.07711 -7.85664 -0.8660235 -0.2500019 -0.4330153 255 255 255 255 0.08062 0.278734
-1.274229 3.97362 -9.76797 0 -0.4999868 -0.866033 255 255 255 255 0.080518 0.278692
0.511242 3.65388 -8.05743 0 -0.8660268 0.4999977 255 255 255 255 0.080353 0.278825
-0.511242 3.65388 -8.05743 0 -0.8660267 0.4999977 255 255 255 255 0.080458 0.278827
-1.274229 2.993124 -9.2019 0 -0.8660268 0.4999977 255 255 255 255 0.080518 0.278806
3 0 1 2 
3 3 4 5 
3 6 7 8 
3 9 10 11 
3 12 13 14 
3 15 16 17 
3 18 19 20 
3 13 21 22 
3 23 24 25 
3 26 27 16 
3 28 29 30 
3 31 32 33 
3 34 35 36 
3 37 38 39 
3 40 41 42 
3 43 44 45 
3 46 47 48 
3 49 50 51 
3 52 53 54 
3 55 56 57 
3 58 59 60 
3 61 62 63 
3 64 65 66 
3 67 68 69 
3 70 71 72 
3 73 74 75 
3 76 77 78 
3 79 80 81 
3 82 83 84 
3 85 86 87 
3 88 82 84 
3 86 89 87 
3 90 91 92 
3 93 94 95 
3 96 97 98 
3 99 100 101 
3 102 103 104 
3 105 106 107 
3 108 109 110 
3 111 112 113 
3 114 115 116 
3 109 117 118 
3 119 120 121 
3 122 123 112 
3 124 125 126 
3 127 128 129 
3 130 131 132 
3 133 134 135 
3 136 137 138 
3 139 140 141 
3 142 143 144 
3 138 145 146 
3 147 148 149 
3 150 151 140 
3 152 153 154 
3 155 156 157 
3 158 159 160 
3 161 162 163 
3 164 165 166 
3 167 168 169 
3 170 171 172 
3 173 174 175 
3 176 174 177 
3 153 178 179 
3 177 180 176 
3 181 182 183 
3 178 184 179 
3 185 186 187 
3 188 189 190 
3 191 192 193 
3 194 195 196 
3 197 198 199 
3 200 201 202 
3 203 204 205 
3 206 207 208 
3 201 209 210 
3 211 212 213 
3 214 215 204 
3 216 217 218 
3 219 220 221 
3 222 223 224 
3 225 226 227 
3 228 229 230 
3 231 232 233 
3 234 235 236 
3 237 238 239 
3 240 241 242 
3 243 244 245 
3 246 247 248 
3 249 250 251 
3 252 253 254 
3 255 256 257 
3 258 259 252 
3 260 261 262 
3 263 264 258 
3 265 266 267 
3 268 263 269 
3 270 271 272 
3 273 274 275 
3 276 277 278 
3 253 279 254 
3 280 257 281 
3 282 283 284 
3 285 286 287 
3 288 289 290 
3 291 292 293 
3 294 295 296 
3 297 298 299 
3 300 301 302 
3 303 304 305 
3 306 307 308 
3 309 310 311 
3 312 313 314 
3 315 316 317 
3 318 319 320 
3 321 322 323 
3 324 325 326 
3 324 327 328 
3 329 327 330 
3 331 330 332 
3 331 333 334 
3 335 333 325 
3 304 336 337 
3 0 338 1 
3 3 339 4 
3 6 340 7 
3 9 341 10 
3 12 342 13 
3 15 26 16 
3 18 343 19 
3 13 342 21 
3 23 344 24 
3 26 345 27 
3 28 346 29 
3 31 347 32 
3 348 349 350 
3 37 351 38 
3 352 353 354 
3 43 355 44 
3 46 356 47 
3 49 357 50 
3 52 358 53 
3 55 359 56 
3 58 360 59 
3 61 361 62 
3 362 363 364 
3 365 366 367 
3 368 369 370 
3 73 371 74 
3 372 373 374 
3 375 376 377 
3 378 379 380 
3 381 382 383 
3 384 385 386 
3 387 388 389 
3 90 390 91 
3 93 391 94 
3 96 392 97 
3 99 393 100 
3 102 394 103 
3 105 395 106 
3 108 396 109 
3 111 122 112 
3 114 397 115 
3 109 396 117 
3 119 398 120 
3 122 399 123 
3 124 400 125 
3 127 401 128 
3 130 402 131 
3 133 403 134 
3 136 404 137 
3 139 150 140 
3 142 405 143 
3 138 137 145 
3 147 406 148 
3 150 407 151 
3 152 408 153 
3 155 409 156 
3 158 410 159 
3 161 411 162 
3 164 412 165 
3 167 413 168 
3 170 414 171 
3 173 415 174 
3 176 175 174 
3 153 408 178 
3 177 416 180 
3 181 417 182 
3 178 418 184 
3 185 419 186 
3 188 420 189 
3 191 421 192 
3 194 422 195 
3 197 423 198 
3 200 424 201 
3 203 214 204 
3 206 425 207 
3 201 424 209 
3 211 426 212 
3 214 427 215 
3 428 429 430 
3 431 432 433 
3 434 435 436 
3 225 437 226 
3 438 439 440 
3 231 441 232 
3 234 442 235 
3 237 443 238 
3 444 445 446 
3 243 447 244 
3 246 448 247 
3 249 449 250 
3 252 259 253 
3 450 451 452 
3 258 264 259 
3 453 454 455 
3 263 456 264 
3 457 458 459 
3 268 456 263 
3 459 458 460 
3 279 461 268 
3 460 280 281 
3 253 461 279 
3 280 255 257 
3 282 462 283 
3 285 463 286 
3 288 464 289 
3 291 465 292 
3 294 466 295 
3 297 467 298 
3 302 468 469 
3 469 300 302 
3 301 470 302 
3 303 471 304 
3 472 473 474 
3 309 475 310 
3 312 476 313 
3 315 477 316 
3 318 478 319 
3 321 479 322 
3 324 335 325 
3 324 326 327 
3 329 328 327 
3 331 329 330 
3 331 332 333 
3 480 481 482 
3 304 471 336 
