ply
format ascii 1.0
comment VCGLIB generated
comment TextureFile Dungeons_2_Texture_01_A.png
element vertex 483
property float x
property float y
property float z
property uchar red
property uchar green
property uchar blue
property uchar alpha
property float texture_u
property float texture_v
element face 248
property list uchar int vertex_indices
end_header
-0.191186 0.77864 -3.15741 255 255 255 255 0.079792 0.281112
0.191186 2.4843 -4.14217 255 255 255 255 0.079824 0.280692
0.191186 0.77864 -3.15741 255 255 255 255 0.079829 0.281151
-0.191186 4.01192 -5.38299 255 255 255 255 0.079698 0.28016
0.191186 4.12958 -5.23623 255 255 255 255 0.079802 0.280159
0.191186 4.01192 -5.38299 255 255 255 255 0.079736 0.280169
-0.191186 2.57809 -3.97973 255 255 255 255 0.079846 0.280662
0.191186 0.8724241 -2.99497 255 255 255 255 0.07989 0.281142
0.191186 2.57809 -3.97973 255 255 255 255 0.079887 0.280687
-0.191186 0.8724241 -2.99497 255 255 255 255 0.07985 0.281104
0.191186 0.77864 -3.15741 255 255 255 255 0.079829 0.281151
0.191186 0.8724241 -2.99497 255 255 255 255 0.07989 0.281142
-0.191186 0.8724241 -2.99497 255 255 255 255 0.07985 0.281104
-0.191186 2.4843 -4.14217 255 255 255 255 0.079785 0.280667
-0.191186 0.77864 -3.15741 255 255 255 255 0.079792 0.281112
0.191186 0.77864 -3.15741 255 255 255 255 0.079829 0.281151
0.191186 2.57809 -3.97973 255 255 255 255 0.079887 0.280687
0.191186 0.8724241 -2.99497 255 255 255 255 0.07989 0.281142
-0.191186 2.4843 -4.14217 255 255 255 255 0.079785 0.280667
0.191186 4.01192 -5.38299 255 255 255 255 0.079736 0.280169
0.191186 2.4843 -4.14217 255 255 255 255 0.079824 0.280692
-0.191186 4.12958 -5.23623 255 255 255 255 0.079762 0.280151
-0.191186 4.01192 -5.38299 255 255 255 255 0.079698 0.28016
0.191186 2.57809 -3.97973 255 255 255 255 0.079887 0.280687
-0.191186 4.12958 -5.23623 255 255 255 255 0.079762 0.280151
-0.191186 2.57809 -3.97973 255 255 255 255 0.079846 0.280662
0.191186 2.4843 -4.14217 255 255 255 255 0.079824 0.280692
0.191186 4.12958 -5.23623 255 255 255 255 0.079802 0.280159
0.914228 4.08789 -4.00193 255 255 255 255 0.080182 0.278844
0.471125 3.93634 -4.85668 255 255 255 255 0.080304 0.278689
0.457114 3.69201 -4.6876 255 255 255 255 0.080304 0.278803
0.457114 4.48376 -3.31626 255 255 255 255 0.080277 0.278891
0.942249 4.34434 -4.15 255 255 255 255 0.080181 0.278728
0.914228 4.08789 -4.00193 255 255 255 255 0.080182 0.278844
-0.471125 4.75235 -3.44331 255 255 255 255 0.080502 0.278775
0.457114 4.48376 -3.31626 255 255 255 255 0.080277 0.278891
-0.457114 4.48376 -3.31626 255 255 255 255 0.080501 0.278895
-0.942249 4.34434 -4.15 255 255 255 255 0.08062 0.278734
-0.457114 4.48376 -3.31626 255 255 255 255 0.080501 0.278895
-0.914228 4.08789 -4.00193 255 255 255 255 0.080619 0.27885
-0.457114 3.69201 -4.6876 255 255 255 255 0.080518 0.278806
-0.942249 4.34434 -4.15 255 255 255 255 0.08062 0.278734
-0.914228 4.08789 -4.00193 255 255 255 255 0.080619 0.27885
0.471125 3.93634 -4.85668 255 255 255 255 0.080304 0.278689
-0.457114 3.69201 -4.6876 255 255 255 255 0.080518 0.278806
0.457114 3.69201 -4.6876 255 255 255 255 0.080304 0.278803
0.552806 3.60914 -4.83114 255 255 255 255 0.080304 0.278803
1.1395 4.34434 -4.15 255 255 255 255 0.080181 0.278728
1.10561 4.08789 -4.00193 255 255 255 255 0.080182 0.278844
1.10561 4.08789 -4.00193 255 255 255 255 0.080182 0.278844
0.569748 4.83776 -3.29537 255 255 255 255 0.080276 0.278772
0.552805 4.56663 -3.17272 255 255 255 255 0.080277 0.278891
0.552805 4.56663 -3.17272 255 255 255 255 0.080277 0.278891
-0.5697491 4.83776 -3.29537 255 255 255 255 0.080502 0.278775
-0.552805 4.56663 -3.17272 255 255 255 255 0.080501 0.278895
-0.552805 4.56663 -3.17272 255 255 255 255 0.080501 0.278895
-1.1395 4.34434 -4.15 255 255 255 255 0.08062 0.278734
-1.10561 4.08789 -4.00193 255 255 255 255 0.080619 0.27885
-1.10561 4.08789 -4.00193 255 255 255 255 0.080619 0.27885
-0.569748 3.85092 -5.00462 255 255 255 255 0.080518 0.278692
-0.552805 3.60914 -4.83114 255 255 255 255 0.080518 0.278806
-0.552805 3.60914 -4.83114 255 255 255 255 0.080518 0.278806
0.5697491 3.85092 -5.00462 255 255 255 255 0.080304 0.278689
0.552806 3.60914 -4.83114 255 255 255 255 0.080304 0.278803
0.914228 4.08789 -4.00193 255 255 255 255 0.080182 0.278844
0.552806 3.60914 -4.83114 255 255 255 255 0.080304 0.278803
1.10561 4.08789 -4.00193 255 255 255 255 0.080182 0.278844
0.5697491 3.85092 -5.00462 255 255 255 255 0.080304 0.278689
0.942249 4.34434 -4.15 255 255 255 255 0.080181 0.278728
1.1395 4.34434 -4.15 255 255 255 255 0.080181 0.278728
0.552805 4.56663 -3.17272 255 255 255 255 0.080277 0.278891
0.914228 4.08789 -4.00193 255 255 255 255 0.080182 0.278844
1.10561 4.08789 -4.00193 255 255 255 255 0.080182 0.278844
0.942249 4.34434 -4.15 255 255 255 255 0.080181 0.278728
0.569748 4.83776 -3.29537 255 255 255 255 0.080276 0.278772
1.1395 4.34434 -4.15 255 255 255 255 0.080181 0.278728
-0.552805 4.56663 -3.17272 255 255 255 255 0.080501 0.278895
0.457114 4.48376 -3.31626 255 255 255 255 0.080277 0.278891
0.552805 4.56663 -3.17272 255 255 255 255 0.080277 0.278891
0.471125 4.75235 -3.44331 255 255 255 255 0.080276 0.278772
-0.5697491 4.83776 -3.29537 255 255 255 255 0.080502 0.278775
0.569748 4.83776 -3.29537 255 255 255 255 0.080276 0.278772
-0.914228 4.08789 -4.00193 255 255 255 255 0.080619 0.27885
-0.552805 4.56663 -3.17272 255 255 255 255 0.080501 0.278895
-1.10561 4.08789 -4.00193 255 255 255 255 0.080619 0.27885
-0.5697491 4.83776 -3.29537 255 255 255 255 0.080502 0.278775
-0.942249 4.34434 -4.15 255 255 255 255 0.08062 0.278734
-1.1395 4.34434 -4.15 255 255 255 255 0.08062 0.278734
-0.552805 3.60914 -4.83114 255 255 255 255 0.080518 0.278806
-0.569748 3.85092 -5.00462 255 255 255 255 0.080518 0.278692
0.552806 3.60914 -4.83114 255 255 255 255 0.080304 0.278803
-0.457114 3.69201 -4.6876 255 255 255 255 0.080518 0.278806
-0.552805 3.60914 -4.83114 255 255 255 255 0.080518 0.278806
-0.471124 3.93634 -4.85668 255 255 255 255 0.080518 0.278692
0.5697491 3.85092 -5.00462 255 255 255 255 0.080304 0.278689
-0.569748 3.85092 -5.00462 255 255 255 255 0.080518 0.278692
0.923244 1.14467 -2.52343 255 255 255 255 0.079792 0.281112
0.923244 3.04152 -3.17705 255 255 255 255 0.079824 0.280692
0.923244 1.33586 -2.19228 255 255 255 255 0.079829 0.281151
1.23402 4.72452 -4.14873 255 255 255 255 0.079736 0.280169
1.04809 4.55804 -4.49413 255 255 255 255 0.079762 0.280151
1.04809 4.74922 -4.16299 255 255 255 255 0.079802 0.280159
0.735675 3.04152 -3.17705 255 255 255 255 0.079887 0.280687
0.735675 1.14467 -2.52343 255 255 255 255 0.07985 0.281104
0.735675 1.33586 -2.19228 255 255 255 255 0.07989 0.281142
0.735675 1.14467 -2.52343 255 255 255 255 0.07985 0.281104
0.923244 1.33586 -2.19228 255 255 255 255 0.079829 0.281151
0.735675 1.33586 -2.19228 255 255 255 255 0.07989 0.281142
0.735675 1.14467 -2.52343 255 255 255 255 0.07985 0.281104
0.923244 2.85033 -3.50819 255 255 255 255 0.079785 0.280667
0.923244 1.14467 -2.52343 255 255 255 255 0.079792 0.281112
0.923244 1.33586 -2.19228 255 255 255 255 0.079829 0.281151
0.735675 3.04152 -3.17705 255 255 255 255 0.079887 0.280687
0.735675 1.33586 -2.19228 255 255 255 255 0.07989 0.281142
0.923244 3.04152 -3.17705 255 255 255 255 0.079824 0.280692
1.23402 4.53334 -4.47988 255 255 255 255 0.079698 0.28016
1.23402 4.72452 -4.14873 255 255 255 255 0.079736 0.280169
1.04809 4.55804 -4.49413 255 255 255 255 0.079762 0.280151
1.23402 4.53334 -4.47988 255 255 255 255 0.079698 0.28016
0.735675 3.04152 -3.17705 255 255 255 255 0.079887 0.280687
1.04809 4.55804 -4.49413 255 255 255 255 0.079762 0.280151
0.735675 2.85033 -3.50819 255 255 255 255 0.079846 0.280662
0.923244 3.04152 -3.17705 255 255 255 255 0.079824 0.280692
1.04809 4.74922 -4.16299 255 255 255 255 0.079802 0.280159
0.191186 1.70188 -1.5583 255 255 255 255 0.079792 0.281112
-0.191186 3.40755 -2.54307 255 255 255 255 0.079824 0.280692
-0.191186 1.70188 -1.5583 255 255 255 255 0.079829 0.281151
0.191186 5.24594 -3.24561 255 255 255 255 0.079698 0.28016
-0.191186 5.17767 -3.42089 255 255 255 255 0.079802 0.280159
-0.191186 5.24594 -3.24561 255 255 255 255 0.079736 0.280169
0.191186 3.31376 -2.7055 255 255 255 255 0.079846 0.280662
-0.191186 1.6081 -1.72074 255 255 255 255 0.07989 0.281142
-0.191186 3.31376 -2.7055 255 255 255 255 0.079887 0.280687
0.191186 1.6081 -1.72074 255 255 255 255 0.07985 0.281104
-0.191186 1.70188 -1.5583 255 255 255 255 0.079829 0.281151
-0.191186 1.6081 -1.72074 255 255 255 255 0.07989 0.281142
0.191186 1.70188 -1.5583 255 255 255 255 0.079792 0.281112
0.191186 3.31376 -2.7055 255 255 255 255 0.079846 0.280662
0.191186 3.40755 -2.54307 255 255 255 255 0.079785 0.280667
-0.191186 1.70188 -1.5583 255 255 255 255 0.079829 0.281151
-0.191186 3.31376 -2.7055 255 255 255 255 0.079887 0.280687
-0.191186 1.6081 -1.72074 255 255 255 255 0.07989 0.281142
0.191186 3.40755 -2.54307 255 255 255 255 0.079785 0.280667
-0.191186 5.24594 -3.24561 255 255 255 255 0.079736 0.280169
-0.191186 3.40755 -2.54307 255 255 255 255 0.079824 0.280692
0.191186 5.17767 -3.42089 255 255 255 255 0.079762 0.280151
0.191186 5.24594 -3.24561 255 255 255 255 0.079698 0.28016
-0.191186 3.31376 -2.7055 255 255 255 255 0.079887 0.280687
0.191186 5.17767 -3.42089 255 255 255 255 0.079762 0.280151
0.191186 3.31376 -2.7055 255 255 255 255 0.079846 0.280662
-0.191186 3.40755 -2.54307 255 255 255 255 0.079824 0.280692
-0.191186 5.17767 -3.42089 255 255 255 255 0.079802 0.280159
-0.3192 0.147826 -2.19813 255 255 255 255 0.080518 0.278692
0.638401 0.147826 -1.64526 255 255 255 255 0.080181 0.278728
0.3192 0.147826 -2.19813 255 255 255 255 0.080304 0.278689
0.3192 -0.135788 -2.19813 255 255 255 255 0.080304 0.278803
0.638401 0.147826 -1.64526 255 255 255 255 0.080181 0.278728
0.638401 -0.135787 -1.64526 255 255 255 255 0.080182 0.278844
0.638401 -0.135787 -1.64526 255 255 255 255 0.080182 0.278844
0.292001 0.147826 -1.09239 255 255 255 255 0.080276 0.278772
0.292001 -0.135787 -1.09239 255 255 255 255 0.080277 0.278891
0.292001 -0.135787 0.288034 255 255 255 255 0.080277 0.278891
-0.292002 0.147826 0.288034 255 255 255 255 0.080502 0.278775
-0.292002 -0.135787 0.288034 255 255 255 255 0.080501 0.278895
-0.292002 -0.135787 -1.09239 255 255 255 255 0.080501 0.278895
-0.638401 0.147826 -1.64526 255 255 255 255 0.08062 0.278734
-0.638401 -0.135787 -1.64526 255 255 255 255 0.080619 0.27885
-0.638401 -0.135787 -1.64526 255 255 255 255 0.080619 0.27885
-0.3192 0.147826 -2.19813 255 255 255 255 0.080518 0.278692
-0.3192 -0.135788 -2.19813 255 255 255 255 0.080518 0.278806
-0.3192 -0.135788 -2.19813 255 255 255 255 0.080518 0.278806
0.3192 0.147826 -2.19813 255 255 255 255 0.080304 0.278689
0.3192 -0.135788 -2.19813 255 255 255 255 0.080304 0.278803
-0.3192 -0.135788 -2.19813 255 255 255 255 0.080518 0.278806
0.638401 -0.135787 -1.64526 255 255 255 255 0.080182 0.278844
-0.638401 -0.135787 -1.64526 255 255 255 255 0.080619 0.27885
-0.292002 -0.135787 -1.09239 255 255 255 255 0.080501 0.278895
0.292001 -0.135787 -1.09239 255 255 255 255 0.080277 0.278891
-0.292002 0.147826 -1.09239 255 255 255 255 0.080502 0.278775
0.292001 0.147826 -1.09239 255 255 255 255 0.080276 0.278772
-0.292002 -0.135787 0.288034 255 255 255 255 0.080501 0.278895
0.292001 0.147826 -1.09239 255 255 255 255 0.080276 0.278772
0.292001 -0.135787 0.288034 255 255 255 255 0.080277 0.278891
0.292001 -0.135787 -1.09239 255 255 255 255 0.080277 0.278891
0.292001 0.147826 0.288034 255 255 255 255 0.080276 0.278772
-0.292002 -0.135787 -1.09239 255 255 255 255 0.080501 0.278895
-0.292002 0.147826 0.288034 255 255 255 255 0.080502 0.278775
-0.292002 0.147826 -1.09239 255 255 255 255 0.080502 0.278775
-0.923244 1.33586 -2.19228 255 255 255 255 0.079792 0.281112
-0.923244 2.85033 -3.50819 255 255 255 255 0.079824 0.280692
-0.923244 1.14467 -2.52343 255 255 255 255 0.079829 0.281151
-1.23402 4.72452 -4.14873 255 255 255 255 0.079698 0.28016
-1.04809 4.55804 -4.49413 255 255 255 255 0.079802 0.280159
-1.23402 4.53334 -4.47988 255 255 255 255 0.079736 0.280169
-0.735675 3.04152 -3.17705 255 255 255 255 0.079846 0.280662
-0.735675 1.14467 -2.52343 255 255 255 255 0.07989 0.281142
-0.735675 2.85033 -3.50819 255 255 255 255 0.079887 0.280687
-0.735675 1.33586 -2.19228 255 255 255 255 0.07985 0.281104
-0.923244 1.14467 -2.52343 255 255 255 255 0.079829 0.281151
-0.735675 1.14467 -2.52343 255 255 255 255 0.07989 0.281142
-0.735675 1.33586 -2.19228 255 255 255 255 0.07985 0.281104
-0.923244 3.04152 -3.17705 255 255 255 255 0.079785 0.280667
-0.923244 1.33586 -2.19228 255 255 255 255 0.079792 0.281112
-0.923244 1.14467 -2.52343 255 255 255 255 0.079829 0.281151
-0.735675 2.85033 -3.50819 255 255 255 255 0.079887 0.280687
-0.735675 1.14467 -2.52343 255 255 255 255 0.07989 0.281142
-0.923244 3.04152 -3.17705 255 255 255 255 0.079785 0.280667
-1.23402 4.53334 -4.47988 255 255 255 255 0.079736 0.280169
-0.923244 2.85033 -3.50819 255 255 255 255 0.079824 0.280692
-1.04809 4.74922 -4.16299 255 255 255 255 0.079762 0.280151
-1.23402 4.72452 -4.14873 255 255 255 255 0.079698 0.28016
-0.735675 2.85033 -3.50819 255 255 255 255 0.079887 0.280687
-1.04809 4.74922 -4.16299 255 255 255 255 0.079762 0.280151
-0.735675 3.04152 -3.17705 255 255 255 255 0.079846 0.280662
-0.923244 2.85033 -3.50819 255 255 255 255 0.079824 0.280692
-1.04809 4.55804 -4.49413 255 255 255 255 0.079802 0.280159
0.664733 2.90576 -3.31943 255 255 255 255 0.080181 0.278728
0.332367 2.36147 -3.66992 255 255 255 255 0.080304 0.278803
0.664733 2.64931 -3.17137 255 255 255 255 0.080182 0.278844
0.332367 2.93714 -2.67282 255 255 255 255 0.080277 0.278891
0.664733 2.90576 -3.31943 255 255 255 255 0.080181 0.278728
0.664733 2.64931 -3.17137 255 255 255 255 0.080182 0.278844
-0.332367 3.1936 -2.82088 255 255 255 255 0.080502 0.278775
0.332367 2.93714 -2.67282 255 255 255 255 0.080277 0.278891
-0.332367 2.93714 -2.67282 255 255 255 255 0.080501 0.278895
-0.664733 2.64931 -3.17137 255 255 255 255 0.080619 0.27885
-0.332367 3.1936 -2.82088 255 255 255 255 0.080502 0.278775
-0.332367 2.93714 -2.67282 255 255 255 255 0.080501 0.278895
-0.332366 2.36147 -3.66992 255 255 255 255 0.080518 0.278806
-0.664733 2.90576 -3.31943 255 255 255 255 0.08062 0.278734
-0.664733 2.64931 -3.17137 255 255 255 255 0.080619 0.27885
0.332367 2.61792 -3.81798 255 255 255 255 0.080304 0.278689
-0.332366 2.36147 -3.66992 255 255 255 255 0.080518 0.278806
0.332367 2.36147 -3.66992 255 255 255 255 0.080304 0.278803
0.424743 2.28147 -3.80848 255 255 255 255 0.080304 0.278803
0.849485 2.90576 -3.31943 255 255 255 255 0.080181 0.278728
0.849485 2.64931 -3.17137 255 255 255 255 0.080182 0.278844
0.849485 2.64931 -3.17137 255 255 255 255 0.080182 0.278844
0.424743 3.2736 -2.68232 255 255 255 255 0.080276 0.278772
0.424743 3.01714 -2.53425 255 255 255 255 0.080277 0.278891
0.424743 3.01714 -2.53425 255 255 255 255 0.080277 0.278891
-0.424743 3.2736 -2.68232 255 255 255 255 0.080502 0.278775
-0.424743 3.01714 -2.53425 255 255 255 255 0.080501 0.278895
-0.849485 2.64931 -3.17137 255 255 255 255 0.080619 0.27885
-0.424743 3.2736 -2.68232 255 255 255 255 0.080502 0.278775
-0.849485 2.90576 -3.31943 255 255 255 255 0.08062 0.278734
-0.849485 2.64931 -3.17137 255 255 255 255 0.080619 0.27885
-0.424743 2.53792 -3.95654 255 255 255 255 0.080518 0.278692
-0.424743 2.28147 -3.80848 255 255 255 255 0.080518 0.278806
-0.424743 2.28147 -3.80848 255 255 255 255 0.080518 0.278806
0.424743 2.53792 -3.95654 255 255 255 255 0.080304 0.278689
0.424743 2.28147 -3.80848 255 255 255 255 0.080304 0.278803
0.849485 2.64931 -3.17137 255 255 255 255 0.080182 0.278844
0.332367 2.36147 -3.66992 255 255 255 255 0.080304 0.278803
0.424743 2.28147 -3.80848 255 255 255 255 0.080304 0.278803
0.332367 2.61792 -3.81798 255 255 255 255 0.080304 0.278689
0.849485 2.90576 -3.31943 255 255 255 255 0.080181 0.278728
0.424743 2.53792 -3.95654 255 255 255 255 0.080304 0.278689
0.424743 3.01714 -2.53425 255 255 255 255 0.080277 0.278891
0.664733 2.64931 -3.17137 255 255 255 255 0.080182 0.278844
0.664733 2.90576 -3.31943 255 255 255 255 0.080181 0.278728
0.424743 3.2736 -2.68232 255 255 255 255 0.080276 0.278772
0.849485 2.90576 -3.31943 255 255 255 255 0.080181 0.278728
-0.424743 3.01714 -2.53425 255 255 255 255 0.080501 0.278895
0.332367 2.93714 -2.67282 255 255 255 255 0.080277 0.278891
0.332367 3.1936 -2.82088 255 255 255 255 0.080276 0.278772
-0.424743 3.2736 -2.68232 255 255 255 255 0.080502 0.278775
0.424743 3.2736 -2.68232 255 255 255 255 0.080276 0.278772
-0.664733 2.64931 -3.17137 255 255 255 255 0.080619 0.27885
-0.849485 2.64931 -3.17137 255 255 255 255 0.080619 0.27885
-0.424743 3.2736 -2.68232 255 255 255 255 0.080502 0.278775
-0.664733 2.90576 -3.31943 255 255 255 255 0.08062 0.278734
-0.849485 2.90576 -3.31943 255 255 255 255 0.08062 0.278734
-0.424743 2.28147 -3.80848 255 255 255 255 0.080518 0.278806
-0.664733 2.64931 -3.17137 255 255 255 255 0.080619 0.27885
-0.849485 2.64931 -3.17137 255 255 255 255 0.080619 0.27885
-0.664733 2.90576 -3.31943 255 255 255 255 0.08062 0.278734
-0.424743 2.53792 -3.95654 255 255 255 255 0.080518 0.278692
-0.849485 2.90576 -3.31943 255 255 255 255 0.08062 0.278734
-0.424743 2.28147 -3.80848 255 255 255 255 0.080518 0.278806
-0.332366 2.61792 -3.81798 255 255 255 255 0.080518 0.278692
-0.424743 2.53792 -3.95654 255 255 255 255 0.080518 0.278692
-0.170414 -2.59878 -0.482208 255 255 255 255 0.080457 0.279627
0.170414 1.21796 -2.68581 255 255 255 255 0.080353 0.278825
0.170414 -2.59878 -0.482208 255 255 255 255 0.080354 0.279625
-0.340828 -2.4512 -0.226587 255 255 255 255 0.080504 0.279659
-0.170414 1.21796 -2.68581 255 255 255 255 0.080458 0.278827
-0.170414 -2.59878 -0.482208 255 255 255 255 0.080457 0.279627
-0.170414 -2.30362 0.0290341 255 255 255 255 0.080447 0.279689
-0.340828 1.36555 -2.43019 255 255 255 255 0.080507 0.278849
-0.340828 -2.4512 -0.226587 255 255 255 255 0.080504 0.279659
0.170414 -2.30362 0.0290341 255 255 255 255 0.080342 0.279687
-0.170414 1.51313 -2.17457 255 255 255 255 0.080449 0.27887
-0.170414 -2.30362 0.0290341 255 255 255 255 0.080447 0.279689
0.340828 -2.4512 -0.226587 255 255 255 255 0.080297 0.279655
0.170414 1.51313 -2.17457 255 255 255 255 0.08034 0.278869
0.170414 -2.30362 0.0290341 255 255 255 255 0.080342 0.279687
0.170414 -2.59878 -0.482208 255 255 255 255 0.080354 0.279625
0.340828 1.36555 -2.43019 255 255 255 255 0.080293 0.278846
0.340828 -2.4512 -0.226587 255 255 255 255 0.080297 0.279655
0.170414 -2.30362 0.0290341 255 255 255 255 0.080342 0.279687
-0.170414 -2.30362 0.0290341 255 255 255 255 0.080447 0.279689
-0.170414 -2.59878 -0.482208 255 255 255 255 0.080457 0.279627
-0.424743 1.32454 -3.25599 255 255 255 255 0.080518 0.278692
0.849485 1.69237 -2.61888 255 255 255 255 0.080181 0.278728
0.424743 1.32454 -3.25599 255 255 255 255 0.080304 0.278689
0.849485 1.36555 -2.43019 255 255 255 255 0.080182 0.278844
0.424743 1.32454 -3.25599 255 255 255 255 0.080304 0.278689
0.849485 1.69237 -2.61888 255 255 255 255 0.080181 0.278728
0.424743 1.73338 -1.79307 255 255 255 255 0.080277 0.278891
0.849485 1.69237 -2.61888 255 255 255 255 0.080181 0.278728
0.424743 2.06021 -1.98177 255 255 255 255 0.080276 0.278772
0.424743 1.73338 -1.79307 255 255 255 255 0.080277 0.278891
-0.424743 2.06021 -1.98177 255 255 255 255 0.080502 0.278775
-0.424743 1.73338 -1.79307 255 255 255 255 0.080501 0.278895
-0.424743 1.73338 -1.79307 255 255 255 255 0.080501 0.278895
-0.849485 1.69237 -2.61888 255 255 255 255 0.08062 0.278734
-0.849485 1.36555 -2.43019 255 255 255 255 0.080619 0.27885
-0.849485 1.36555 -2.43019 255 255 255 255 0.080619 0.27885
-0.424743 1.32454 -3.25599 255 255 255 255 0.080518 0.278692
-0.424743 0.997708 -3.0673 255 255 255 255 0.080518 0.278806
-0.424743 0.997708 -3.0673 255 255 255 255 0.080518 0.278806
0.424743 1.32454 -3.25599 255 255 255 255 0.080304 0.278689
0.424743 0.997708 -3.0673 255 255 255 255 0.080304 0.278803
0.340828 1.36555 -2.43019 255 255 255 255 0.080293 0.278846
0.424743 0.997708 -3.0673 255 255 255 255 0.080304 0.278803
0.849485 1.36555 -2.43019 255 255 255 255 0.080182 0.278844
0.424743 1.73338 -1.79307 255 255 255 255 0.080277 0.278891
0.170414 1.51313 -2.17457 255 255 255 255 0.08034 0.278869
-0.170414 1.51313 -2.17457 255 255 255 255 0.080449 0.27887
-0.424743 1.73338 -1.79307 255 255 255 255 0.080501 0.278895
-0.340828 1.36555 -2.43019 255 255 255 255 0.080507 0.278849
-0.849485 1.36555 -2.43019 255 255 255 255 0.080619 0.27885
-0.424743 0.997708 -3.0673 255 255 255 255 0.080518 0.278806
-0.170414 1.21796 -2.68581 255 255 255 255 0.080458 0.278827
0.170414 1.21796 -2.68581 255 255 255 255 0.080353 0.278825
-0.424743 2.06021 -1.98177 255 255 255 255 0.080502 0.278775
0.424743 2.06021 -1.98177 255 255 255 255 0.080276 0.278772
-0.191186 2.4843 -4.14217 255 255 255 255 0.079785 0.280667
-0.191186 4.12958 -5.23623 255 255 255 255 0.079762 0.280151
-0.191186 0.8724241 -2.99497 255 255 255 255 0.07985 0.281104
-0.191186 0.77864 -3.15741 255 255 255 255 0.079792 0.281112
-0.191186 2.57809 -3.97973 255 255 255 255 0.079846 0.280662
-0.191186 4.01192 -5.38299 255 255 255 255 0.079698 0.28016
0.191186 4.12958 -5.23623 255 255 255 255 0.079802 0.280159
0.191186 4.01192 -5.38299 255 255 255 255 0.079736 0.280169
0.942249 4.34434 -4.15 255 255 255 255 0.080181 0.278728
0.471125 4.75235 -3.44331 255 255 255 255 0.080276 0.278772
-0.471125 4.75235 -3.44331 255 255 255 255 0.080502 0.278775
0.471125 4.75235 -3.44331 255 255 255 255 0.080276 0.278772
0.457114 4.48376 -3.31626 255 255 255 255 0.080277 0.278891
-0.471125 4.75235 -3.44331 255 255 255 255 0.080502 0.278775
-0.457114 3.69201 -4.6876 255 255 255 255 0.080518 0.278806
-0.471124 3.93634 -4.85668 255 255 255 255 0.080518 0.278692
-0.942249 4.34434 -4.15 255 255 255 255 0.08062 0.278734
-0.471124 3.93634 -4.85668 255 255 255 255 0.080518 0.278692
0.5697491 3.85092 -5.00462 255 255 255 255 0.080304 0.278689
1.1395 4.34434 -4.15 255 255 255 255 0.080181 0.278728
0.569748 4.83776 -3.29537 255 255 255 255 0.080276 0.278772
-0.5697491 4.83776 -3.29537 255 255 255 255 0.080502 0.278775
-1.1395 4.34434 -4.15 255 255 255 255 0.08062 0.278734
-0.569748 3.85092 -5.00462 255 255 255 255 0.080518 0.278692
0.914228 4.08789 -4.00193 255 255 255 255 0.080182 0.278844
0.457114 3.69201 -4.6876 255 255 255 255 0.080304 0.278803
0.552806 3.60914 -4.83114 255 255 255 255 0.080304 0.278803
0.5697491 3.85092 -5.00462 255 255 255 255 0.080304 0.278689
0.471125 3.93634 -4.85668 255 255 255 255 0.080304 0.278689
0.942249 4.34434 -4.15 255 255 255 255 0.080181 0.278728
0.552805 4.56663 -3.17272 255 255 255 255 0.080277 0.278891
0.457114 4.48376 -3.31626 255 255 255 255 0.080277 0.278891
0.914228 4.08789 -4.00193 255 255 255 255 0.080182 0.278844
0.471125 4.75235 -3.44331 255 255 255 255 0.080276 0.278772
-0.552805 4.56663 -3.17272 255 255 255 255 0.080501 0.278895
-0.457114 4.48376 -3.31626 255 255 255 255 0.080501 0.278895
0.457114 4.48376 -3.31626 255 255 255 255 0.080277 0.278891
0.471125 4.75235 -3.44331 255 255 255 255 0.080276 0.278772
-0.471125 4.75235 -3.44331 255 255 255 255 0.080502 0.278775
-0.5697491 4.83776 -3.29537 255 255 255 255 0.080502 0.278775
-0.914228 4.08789 -4.00193 255 255 255 255 0.080619 0.27885
-0.457114 4.48376 -3.31626 255 255 255 255 0.080501 0.278895
-0.552805 4.56663 -3.17272 255 255 255 255 0.080501 0.278895
-0.5697491 4.83776 -3.29537 255 255 255 255 0.080502 0.278775
-0.471125 4.75235 -3.44331 255 255 255 255 0.080502 0.278775
-0.942249 4.34434 -4.15 255 255 255 255 0.08062 0.278734
-0.552805 3.60914 -4.83114 255 255 255 255 0.080518 0.278806
-0.457114 3.69201 -4.6876 255 255 255 255 0.080518 0.278806
-0.914228 4.08789 -4.00193 255 255 255 255 0.080619 0.27885
-0.942249 4.34434 -4.15 255 255 255 255 0.08062 0.278734
-0.471124 3.93634 -4.85668 255 255 255 255 0.080518 0.278692
-0.569748 3.85092 -5.00462 255 255 255 255 0.080518 0.278692
0.457114 3.69201 -4.6876 255 255 255 255 0.080304 0.278803
0.471125 3.93634 -4.85668 255 255 255 255 0.080304 0.278689
0.923244 2.85033 -3.50819 255 255 255 255 0.079785 0.280667
1.23402 4.53334 -4.47988 255 255 255 255 0.079698 0.28016
0.735675 2.85033 -3.50819 255 255 255 255 0.079846 0.280662
0.923244 1.14467 -2.52343 255 255 255 255 0.079792 0.281112
0.735675 2.85033 -3.50819 255 255 255 255 0.079846 0.280662
0.923244 2.85033 -3.50819 255 255 255 255 0.079785 0.280667
1.04809 4.74922 -4.16299 255 255 255 255 0.079802 0.280159
1.23402 4.72452 -4.14873 255 255 255 255 0.079736 0.280169
0.191186 3.40755 -2.54307 255 255 255 255 0.079785 0.280667
0.191186 5.17767 -3.42089 255 255 255 255 0.079762 0.280151
0.191186 1.6081 -1.72074 255 255 255 255 0.07985 0.281104
0.191186 1.70188 -1.5583 255 255 255 255 0.079792 0.281112
0.191186 1.6081 -1.72074 255 255 255 255 0.07985 0.281104
0.191186 5.24594 -3.24561 255 255 255 255 0.079698 0.28016
-0.191186 5.17767 -3.42089 255 255 255 255 0.079802 0.280159
-0.191186 5.24594 -3.24561 255 255 255 255 0.079736 0.280169
-0.638401 0.147826 -1.64526 255 255 255 255 0.08062 0.278734
0.3192 0.147826 -2.19813 255 255 255 255 0.080304 0.278689
0.638401 0.147826 -1.64526 255 255 255 255 0.080181 0.278728
0.292001 0.147826 0.288034 255 255 255 255 0.080276 0.278772
-0.292002 0.147826 -1.09239 255 255 255 255 0.080502 0.278775
-0.638401 0.147826 -1.64526 255 255 255 255 0.08062 0.278734
-0.3192 0.147826 -2.19813 255 255 255 255 0.080518 0.278692
0.3192 -0.135788 -2.19813 255 255 255 255 0.080304 0.278803
0.292001 -0.135787 0.288034 255 255 255 255 0.080277 0.278891
0.292001 0.147826 0.288034 255 255 255 255 0.080276 0.278772
-0.292002 0.147826 0.288034 255 255 255 255 0.080502 0.278775
-0.292002 -0.135787 0.288034 255 255 255 255 0.080501 0.278895
-0.923244 3.04152 -3.17705 255 255 255 255 0.079785 0.280667
-1.04809 4.74922 -4.16299 255 255 255 255 0.079762 0.280151
-0.735675 1.33586 -2.19228 255 255 255 255 0.07985 0.281104
-0.923244 1.33586 -2.19228 255 255 255 255 0.079792 0.281112
-0.735675 3.04152 -3.17705 255 255 255 255 0.079846 0.280662
-1.23402 4.72452 -4.14873 255 255 255 255 0.079698 0.28016
-1.04809 4.55804 -4.49413 255 255 255 255 0.079802 0.280159
-1.23402 4.53334 -4.47988 255 255 255 255 0.079736 0.280169
0.664733 2.90576 -3.31943 255 255 255 255 0.080181 0.278728
0.332367 2.61792 -3.81798 255 255 255 255 0.080304 0.278689
0.332367 2.36147 -3.66992 255 255 255 255 0.080304 0.278803
0.332367 2.93714 -2.67282 255 255 255 255 0.080277 0.278891
0.332367 3.1936 -2.82088 255 255 255 255 0.080276 0.278772
0.664733 2.90576 -3.31943 255 255 255 255 0.080181 0.278728
-0.332367 3.1936 -2.82088 255 255 255 255 0.080502 0.278775
0.332367 3.1936 -2.82088 255 255 255 255 0.080276 0.278772
0.332367 2.93714 -2.67282 255 255 255 255 0.080277 0.278891
-0.664733 2.90576 -3.31943 255 255 255 255 0.08062 0.278734
-0.332366 2.36147 -3.66992 255 255 255 255 0.080518 0.278806
-0.332366 2.61792 -3.81798 255 255 255 255 0.080518 0.278692
-0.664733 2.90576 -3.31943 255 255 255 255 0.08062 0.278734
-0.332366 2.61792 -3.81798 255 255 255 255 0.080518 0.278692
0.424743 2.53792 -3.95654 255 255 255 255 0.080304 0.278689
0.849485 2.90576 -3.31943 255 255 255 255 0.080181 0.278728
0.424743 3.01714 -2.53425 255 255 255 255 0.080277 0.278891
0.424743 3.2736 -2.68232 255 255 255 255 0.080276 0.278772
-0.424743 3.2736 -2.68232 255 255 255 255 0.080502 0.278775
-0.424743 3.01714 -2.53425 255 255 255 255 0.080501 0.278895
-0.849485 2.90576 -3.31943 255 255 255 255 0.08062 0.278734
-0.424743 2.53792 -3.95654 255 255 255 255 0.080518 0.278692
0.332367 2.61792 -3.81798 255 255 255 255 0.080304 0.278689
0.664733 2.90576 -3.31943 255 255 255 255 0.080181 0.278728
0.849485 2.90576 -3.31943 255 255 255 255 0.080181 0.278728
0.664733 2.90576 -3.31943 255 255 255 255 0.080181 0.278728
0.332367 3.1936 -2.82088 255 255 255 255 0.080276 0.278772
0.424743 3.2736 -2.68232 255 255 255 255 0.080276 0.278772
-0.332367 2.93714 -2.67282 255 255 255 255 0.080501 0.278895
0.332367 3.1936 -2.82088 255 255 255 255 0.080276 0.278772
-0.332367 3.1936 -2.82088 255 255 255 255 0.080502 0.278775
-0.424743 3.2736 -2.68232 255 255 255 255 0.080502 0.278775
-0.664733 2.90576 -3.31943 255 255 255 255 0.08062 0.278734
-0.332366 2.36147 -3.66992 255 255 255 255 0.080518 0.278806
-0.170414 1.21796 -2.68581 255 255 255 255 0.080458 0.278827
-0.340828 1.36555 -2.43019 255 255 255 255 0.080507 0.278849
-0.170414 1.51313 -2.17457 255 255 255 255 0.080449 0.27887
0.170414 1.51313 -2.17457 255 255 255 255 0.08034 0.278869
0.340828 1.36555 -2.43019 255 255 255 255 0.080293 0.278846
0.170414 1.21796 -2.68581 255 255 255 255 0.080353 0.278825
0.170414 -2.59878 -0.482208 255 255 255 255 0.080354 0.279625
0.340828 -2.4512 -0.226587 255 255 255 255 0.080297 0.279655
-0.340828 -2.4512 -0.226587 255 255 255 255 0.080504 0.279659
-0.849485 1.69237 -2.61888 255 255 255 255 0.08062 0.278734
0.849485 1.36555 -2.43019 255 255 255 255 0.080182 0.278844
0.424743 0.997708 -3.0673 255 255 255 255 0.080304 0.278803
0.424743 1.32454 -3.25599 255 255 255 255 0.080304 0.278689
0.849485 1.36555 -2.43019 255 255 255 255 0.080182 0.278844
0.424743 2.06021 -1.98177 255 255 255 255 0.080276 0.278772
-0.424743 2.06021 -1.98177 255 255 255 255 0.080502 0.278775
-0.849485 1.69237 -2.61888 255 255 255 255 0.08062 0.278734
-0.424743 1.32454 -3.25599 255 255 255 255 0.080518 0.278692
0.170414 1.21796 -2.68581 255 255 255 255 0.080353 0.278825
-0.170414 1.21796 -2.68581 255 255 255 255 0.080458 0.278827
-0.424743 0.997708 -3.0673 255 255 255 255 0.080518 0.278806
3 0 1 2 
3 3 4 5 
3 6 7 8 
3 9 10 11 
3 12 13 14 
3 15 16 17 
3 18 19 20 
3 13 21 22 
3 23 24 25 
3 26 27 16 
3 28 29 30 
3 31 32 33 
3 34 35 36 
3 37 38 39 
3 40 41 42 
3 43 44 45 
3 46 47 48 
3 49 50 51 
3 52 53 54 
3 55 56 57 
3 58 59 60 
3 61 62 63 
3 64 65 66 
3 67 68 69 
3 70 71 72 
3 73 74 75 
3 76 77 78 
3 79 80 81 
3 82 83 84 
3 85 86 87 
3 88 82 84 
3 86 89 87 
3 90 91 92 
3 93 94 95 
3 96 97 98 
3 99 100 101 
3 102 103 104 
3 105 106 107 
3 108 109 110 
3 111 112 113 
3 114 115 116 
3 109 117 118 
3 119 120 121 
3 122 123 112 
3 124 125 126 
3 127 128 129 
3 130 131 132 
3 133 134 135 
3 136 137 138 
3 139 140 141 
3 142 143 144 
3 138 145 146 
3 147 148 149 
3 150 151 140 
3 152 153 154 
3 155 156 157 
3 158 159 160 
3 161 162 163 
3 164 165 166 
3 167 168 169 
3 170 171 172 
3 173 174 175 
3 176 174 177 
3 153 178 179 
3 177 180 176 
3 181 182 183 
3 178 184 179 
3 185 186 187 
3 188 189 190 
3 191 192 193 
3 194 195 196 
3 197 198 199 
3 200 201 202 
3 203 204 205 
3 206 207 208 
3 201 209 210 
3 211 212 213 
3 214 215 204 
3 216 217 218 
3 219 220 221 
3 222 223 224 
3 225 226 227 
3 228 229 230 
3 231 232 233 
3 234 235 236 
3 237 238 239 
3 240 241 242 
3 243 244 245 
3 246 247 248 
3 249 250 251 
3 252 253 254 
3 255 256 257 
3 258 259 252 
3 260 261 262 
3 263 264 258 
3 265 266 267 
3 268 263 269 
3 270 271 272 
3 273 274 275 
3 276 277 278 
3 253 279 254 
3 280 257 281 
3 282 283 284 
3 285 286 287 
3 288 289 290 
3 291 292 293 
3 294 295 296 
3 297 298 299 
3 300 301 302 
3 303 304 305 
3 306 307 308 
3 309 310 311 
3 312 313 314 
3 315 316 317 
3 318 319 320 
3 321 322 323 
3 324 325 326 
3 324 327 328 
3 329 327 330 
3 331 330 332 
3 331 333 334 
3 335 333 325 
3 304 336 337 
3 0 338 1 
3 3 339 4 
3 6 340 7 
3 9 341 10 
3 12 342 13 
3 15 26 16 
3 18 343 19 
3 13 342 21 
3 23 344 24 
3 26 345 27 
3 28 346 29 
3 31 347 32 
3 348 349 350 
3 37 351 38 
3 352 353 354 
3 43 355 44 
3 46 356 47 
3 49 357 50 
3 52 358 53 
3 55 359 56 
3 58 360 59 
3 61 361 62 
3 362 363 364 
3 365 366 367 
3 368 369 370 
3 73 371 74 
3 372 373 374 
3 375 376 377 
3 378 379 380 
3 381 382 383 
3 384 385 386 
3 387 388 389 
3 90 390 91 
3 93 391 94 
3 96 392 97 
3 99 393 100 
3 102 394 103 
3 105 395 106 
3 108 396 109 
3 111 122 112 
3 114 397 115 
3 109 396 117 
3 119 398 120 
3 122 399 123 
3 124 400 125 
3 127 401 128 
3 130 402 131 
3 133 403 134 
3 136 404 137 
3 139 150 140 
3 142 405 143 
3 138 137 145 
3 147 406 148 
3 150 407 151 
3 152 408 153 
3 155 409 156 
3 158 410 159 
3 161 411 162 
3 164 412 165 
3 167 413 168 
3 170 414 171 
3 173 415 174 
3 176 175 174 
3 153 408 178 
3 177 416 180 
3 181 417 182 
3 178 418 184 
3 185 419 186 
3 188 420 189 
3 191 421 192 
3 194 422 195 
3 197 423 198 
3 200 424 201 
3 203 214 204 
3 206 425 207 
3 201 424 209 
3 211 426 212 
3 214 427 215 
3 428 429 430 
3 431 432 433 
3 434 435 436 
3 225 437 226 
3 438 439 440 
3 231 441 232 
3 234 442 235 
3 237 443 238 
3 444 445 446 
3 243 447 244 
3 246 448 247 
3 249 449 250 
3 252 259 253 
3 450 451 452 
3 258 264 259 
3 453 454 455 
3 263 456 264 
3 457 458 459 
3 268 456 263 
3 459 458 460 
3 279 461 268 
3 460 280 281 
3 253 461 279 
3 280 255 257 
3 282 462 283 
3 285 463 286 
3 288 464 289 
3 291 465 292 
3 294 466 295 
3 297 467 298 
3 302 468 469 
3 469 300 302 
3 301 470 302 
3 303 471 304 
3 472 473 474 
3 309 475 310 
3 312 476 313 
3 315 477 316 
3 318 478 319 
3 321 479 322 
3 324 335 325 
3 324 326 327 
3 329 328 327 
3 331 329 330 
3 331 332 333 
3 480 481 482 
3 304 471 336 
