ply
format ascii 1.0
comment VCGLIB generated
element vertex 65
property float x
property float y
property float z
property float nx
property float ny
property float nz
property uchar red
property uchar green
property uchar blue
property uchar alpha
property float texture_u
property float texture_v
element face 62
property list uchar int vertex_indices
end_header
0.707105 0.7071068 -10 0.5380805 0.5380806 -0.648798 255 255 255 255 0.8535532 0.8535532
-6.341554e-09 9.512332e-09 1.108792e-15 1.735772e-07 1.902466e-09 1 255 255 255 255 0.5 0.5
0.8314674 0.5555702 -10 0.6327156 0.4227671 -0.6487981 255 255 255 255 0.9157345 0.777785
0.9238778 0.3826841 -10 0.703036 0.2912071 -0.648798 255 255 255 255 0.9619396 0.691342
0.9807836 0.1950908 -10 0.746339 0.1484564 -0.648798 255 255 255 255 0.9903925 0.5975453
0.9999982 -9.512332e-09 -10 0.7609603 -1.234317e-09 -0.6487985 255 255 255 255 1 0.5
0.9807836 -0.1950908 -10 0.746339 -0.1484564 -0.648798 255 255 255 255 0.9903925 0.4024546
0.9238778 -0.3826841 -10 0.703036 -0.2912071 -0.648798 255 255 255 255 0.9619396 0.308658
0.8314674 -0.5555702 -10 0.6327156 -0.4227671 -0.6487981 255 255 255 255 0.9157345 0.222215
0.707105 -0.7071068 -10 0.5380805 -0.5380806 -0.648798 255 255 255 255 0.8535532 0.1464467
0.5555684 -0.8314692 -10 0.422767 -0.6327157 -0.648798 255 255 255 255 0.777785 0.08426556
0.3826823 -0.9238796 -10 0.291207 -0.7030361 -0.648798 255 255 255 255 0.691342 0.03806038
0.195089 -0.9807854 -10 0.1484562 -0.7463391 -0.6487979 255 255 255 255 0.5975453 0.00960749
-1.742114e-06 -1 -10 -1.126166e-07 -0.7609605 -0.6487983 255 255 255 255 0.5 0
-0.1950926 -0.9807854 -10 -0.1484566 -0.7463391 -0.6487979 255 255 255 255 0.4024546 0.00960749
-0.3826859 -0.9238796 -10 -0.2912073 -0.703036 -0.648798 255 255 255 255 0.308658 0.03806038
-0.555572 -0.8314692 -10 -0.4227673 -0.6327157 -0.6487979 255 255 255 255 0.222215 0.08426556
-0.7071086 -0.7071068 -10 -0.5380806 -0.5380806 -0.6487978 255 255 255 255 0.1464467 0.1464467
-0.831471 -0.5555702 -10 -0.6327159 -0.4227671 -0.6487979 255 255 255 255 0.08426556 0.222215
-0.9238814 -0.3826841 -10 -0.7030362 -0.2912071 -0.6487979 255 255 255 255 0.03806038 0.308658
-0.9807872 -0.1950908 -10 -0.7463391 -0.1484564 -0.6487979 255 255 255 255 0.00960749 0.4024546
-1.000002 -9.512332e-09 -10 -0.7609605 -1.234317e-09 -0.6487982 255 255 255 255 0 0.5
-0.9807872 0.1950908 -10 -0.7463391 0.1484564 -0.6487979 255 255 255 255 0.00960749 0.5975453
-0.9238814 0.3826841 -10 -0.7030362 0.2912071 -0.6487979 255 255 255 255 0.03806038 0.691342
-0.831471 0.5555702 -10 -0.6327159 0.4227671 -0.6487979 255 255 255 255 0.08426556 0.777785
-0.7071086 0.7071068 -10 -0.5380806 0.5380806 -0.6487978 255 255 255 255 0.1464467 0.8535532
-0.555572 0.8314692 -10 -0.4227673 0.6327157 -0.6487979 255 255 255 255 0.222215 0.9157345
-0.3826859 0.9238796 -10 -0.2912073 0.703036 -0.648798 255 255 255 255 0.308658 0.9619396
-0.1950926 0.9807854 -10 -0.1484566 0.7463391 -0.6487979 255 255 255 255 0.4024546 0.9903925
-1.742114e-06 1 -10 -1.126166e-07 0.7609605 -0.6487983 255 255 255 255 0.5 1
0.195089 0.9807854 -10 0.1484562 0.7463391 -0.6487979 255 255 255 255 0.5975453 0.9903925
0.3826823 0.9238796 -10 0.291207 0.7030361 -0.648798 255 255 255 255 0.691342 0.9619396
-0.555572 -0.8314692 -10 -0.4227673 -0.6327157 -0.6487979 255 255 255 255 0.222215 0.08426556
-0.831471 0.5555702 -10 -0.6327159 0.4227671 -0.6487979 255 255 255 255 0.08426556 0.777785
0.5555684 0.8314692 -10 0.422767 0.6327157 -0.648798 255 255 255 255 0.777785 0.9157345
0.5555684 0.8314692 -10 0.422767 0.6327157 -0.648798 255 255 255 255 0.777785 0.9157345
0.707105 0.7071068 -10 0.5380805 0.5380806 -0.648798 255 255 255 255 0.8535532 0.8535532
0.8314674 0.5555702 -10 0.6327156 0.4227671 -0.6487981 255 255 255 255 0.9157345 0.777785
0.9238778 0.3826841 -10 0.703036 0.2912071 -0.648798 255 255 255 255 0.9619396 0.691342
0.9807836 0.1950908 -10 0.746339 0.1484564 -0.648798 255 255 255 255 0.9903925 0.5975453
0.9999982 -9.512332e-09 -10 0.7609603 -1.234317e-09 -0.6487985 255 255 255 255 1 0.5
0.9807836 -0.1950908 -10 0.746339 -0.1484564 -0.648798 255 255 255 255 0.9903925 0.4024546
0.9238778 -0.3826841 -10 0.703036 -0.2912071 -0.648798 255 255 255 255 0.9619396 0.308658
0.8314674 -0.5555702 -10 0.6327156 -0.4227671 -0.6487981 255 255 255 255 0.9157345 0.222215
0.707105 -0.7071068 -10 0.5380805 -0.5380806 -0.648798 255 255 255 255 0.8535532 0.1464467
0.5555684 -0.8314692 -10 0.422767 -0.6327157 -0.648798 255 255 255 255 0.777785 0.08426556
0.3826823 -0.9238796 -10 0.291207 -0.7030361 -0.648798 255 255 255 255 0.691342 0.03806038
0.195089 -0.9807854 -10 0.1484562 -0.7463391 -0.6487979 255 255 255 255 0.5975453 0.00960749
-1.742114e-06 -1 -10 -1.126166e-07 -0.7609605 -0.6487983 255 255 255 255 0.5 0
-0.1950926 -0.9807854 -10 -0.1484566 -0.7463391 -0.6487979 255 255 255 255 0.4024546 0.00960749
-0.3826859 -0.9238796 -10 -0.2912073 -0.703036 -0.648798 255 255 255 255 0.308658 0.03806038
-0.7071086 -0.7071068 -10 -0.5380806 -0.5380806 -0.6487978 255 255 255 255 0.1464467 0.1464467
-0.831471 -0.5555702 -10 -0.6327159 -0.4227671 -0.6487979 255 255 255 255 0.08426556 0.222215
-0.9238814 -0.3826841 -10 -0.7030362 -0.2912071 -0.6487979 255 255 255 255 0.03806038 0.308658
-0.9807872 -0.1950908 -10 -0.7463391 -0.1484564 -0.6487979 255 255 255 255 0.00960749 0.4024546
-1.000002 -9.512332e-09 -10 -0.7609605 -1.234317e-09 -0.6487982 255 255 255 255 0 0.5
-0.9807872 0.1950908 -10 -0.7463391 0.1484564 -0.6487979 255 255 255 255 0.00960749 0.5975453
-0.9238814 0.3826841 -10 -0.7030362 0.2912071 -0.6487979 255 255 255 255 0.03806038 0.691342
-0.7071086 0.7071068 -10 -0.5380806 0.5380806 -0.6487978 255 255 255 255 0.1464467 0.8535532
-0.555572 0.8314692 -10 -0.4227673 0.6327157 -0.6487979 255 255 255 255 0.222215 0.9157345
-0.3826859 0.9238796 -10 -0.2912073 0.703036 -0.648798 255 255 255 255 0.308658 0.9619396
-0.1950926 0.9807854 -10 -0.1484566 0.7463391 -0.6487979 255 255 255 255 0.4024546 0.9903925
-1.742114e-06 1 -10 -1.126166e-07 0.7609605 -0.6487983 255 255 255 255 0.5 1
0.195089 0.9807854 -10 0.1484562 0.7463391 -0.6487979 255 255 255 255 0.5975453 0.9903925
0.3826823 0.9238796 -10 0.291207 0.7030361 -0.648798 255 255 255 255 0.691342 0.9619396
3 0 1 2 
3 2 1 3 
3 3 1 4 
3 4 1 5 
3 5 1 6 
3 6 1 7 
3 7 1 8 
3 8 1 9 
3 9 1 10 
3 10 1 11 
3 11 1 12 
3 12 1 13 
3 13 1 14 
3 14 1 15 
3 15 1 16 
3 16 1 17 
3 17 1 18 
3 18 1 19 
3 19 1 20 
3 20 1 21 
3 21 1 22 
3 22 1 23 
3 23 1 24 
3 24 1 25 
3 25 1 26 
3 26 1 27 
3 27 1 28 
3 28 1 29 
3 29 1 30 
3 30 1 31 
3 32 33 34 
3 31 1 35 
3 35 1 0 
3 34 36 37 
3 37 38 39 
3 39 40 41 
3 41 42 43 
3 43 44 45 
3 45 46 47 
3 47 48 49 
3 49 50 32 
3 32 51 52 
3 52 53 54 
3 54 55 56 
3 56 57 33 
3 33 58 59 
3 59 60 61 
3 61 62 63 
3 63 64 34 
3 34 37 43 
3 37 39 43 
3 39 41 43 
3 43 45 32 
3 45 47 32 
3 47 49 32 
3 32 52 33 
3 52 54 33 
3 54 56 33 
3 33 59 34 
3 59 61 34 
3 61 63 34 
3 34 43 32 
